<?xml version="1.0" encoding="UTF-8"?>
<!DOCTYPE svg PUBLIC "-//W3C//DTD SVG 1.1//EN" "http://www.w3.org/Graphics/SVG/1.1/DTD/svg11.dtd">
<svg xmlns="http://www.w3.org/2000/svg" version="1.1" width="230px" height="223px" style="shape-rendering:geometricPrecision; text-rendering:geometricPrecision; image-rendering:optimizeQuality; fill-rule:evenodd; clip-rule:evenodd" xmlns:xlink="http://www.w3.org/1999/xlink">
<g><path style="opacity:1" fill="#f9f9f8" d="M -0.5,-0.5 C 76.1667,-0.5 152.833,-0.5 229.5,-0.5C 229.5,73.8333 229.5,148.167 229.5,222.5C 152.833,222.5 76.1667,222.5 -0.5,222.5C -0.5,148.167 -0.5,73.8333 -0.5,-0.5 Z"/></g>
<g><path style="opacity:1" fill="#f6ecd2" d="M 132.5,12.5 C 131.167,12.5 129.833,12.5 128.5,12.5C 126.833,12.5 125.167,12.5 123.5,12.5C 110.93,10.5378 98.5971,11.5378 86.5,15.5C 85.5,15.5 84.5,15.5 83.5,15.5C 84.9801,13.5881 86.9801,12.4215 89.5,12C 102.078,9.75334 114.745,9.08668 127.5,10C 129.315,10.7568 130.981,11.5902 132.5,12.5 Z"/></g>
<g><path style="opacity:1" fill="#f1e4c5" d="M 147.5,16.5 C 152.321,17.0387 156.988,18.2054 161.5,20C 163.213,21.3782 164.547,23.0448 165.5,25C 164.833,25.1667 164.167,25.3333 163.5,25.5C 145.293,20.2118 126.626,18.2118 107.5,19.5C 124.134,17.5055 140.634,18.5055 157,22.5C 158.722,22.3893 158.888,21.8893 157.5,21C 153.939,19.7679 150.606,18.2679 147.5,16.5 Z"/></g>
<g><path style="opacity:1" fill="#c79a48" d="M 123.5,12.5 C 114.459,12.2829 105.459,12.7829 96.5,14C 93.7236,15.7787 94.0569,16.7787 97.5,17C 111.167,17.6667 124.833,17.6667 138.5,17C 135.297,14.9971 131.964,13.4971 128.5,12.5C 129.833,12.5 131.167,12.5 132.5,12.5C 137.411,14.1193 142.411,15.4526 147.5,16.5C 150.606,18.2679 153.939,19.7679 157.5,21C 158.888,21.8893 158.722,22.3893 157,22.5C 140.634,18.5055 124.134,17.5055 107.5,19.5C 101.956,19.9234 96.6225,21.2567 91.5,23.5C 85.2939,24.7867 79.6272,27.12 74.5,30.5C 73.8333,30.5 73.1667,30.5 72.5,30.5C 73.2299,29.2876 74.2299,28.2876 75.5,27.5C 75.2907,26.914 74.9574,26.414 74.5,26C 80.2967,24.9684 85.63,22.8017 90.5,19.5C 92.5159,20.7059 94.5159,20.7059 96.5,19.5C 94.5352,18.7078 92.5352,18.0412 90.5,17.5C 89.914,17.7093 89.414,18.0426 89,18.5C 88.7645,16.8807 87.9311,15.8807 86.5,15.5C 98.5971,11.5378 110.93,10.5378 123.5,12.5 Z"/></g>
<g><path style="opacity:1" fill="#ca932d" d="M 123.5,12.5 C 125.167,12.5 126.833,12.5 128.5,12.5C 131.964,13.4971 135.297,14.9971 138.5,17C 124.833,17.6667 111.167,17.6667 97.5,17C 94.0569,16.7787 93.7236,15.7787 96.5,14C 105.459,12.7829 114.459,12.2829 123.5,12.5 Z"/></g>
<g><path style="opacity:1" fill="#c38a27" d="M 86.5,15.5 C 87.9311,15.8807 88.7645,16.8807 89,18.5C 89.414,18.0426 89.914,17.7093 90.5,17.5C 92.5352,18.0412 94.5352,18.7078 96.5,19.5C 94.5159,20.7059 92.5159,20.7059 90.5,19.5C 85.63,22.8017 80.2967,24.9684 74.5,26C 74.9574,26.414 75.2907,26.914 75.5,27.5C 74.2299,28.2876 73.2299,29.2876 72.5,30.5C 67.7809,31.9624 63.1142,33.629 58.5,35.5C 55.7513,35.2416 54.2513,33.9082 54,31.5C 64.0795,24.5353 74.9129,19.202 86.5,15.5 Z"/></g>
<g><path style="opacity:1" fill="#f6edd3" d="M 91.5,23.5 C 89.8998,24.6444 88.2331,25.8111 86.5,27C 82.3491,27.9241 78.3491,29.0908 74.5,30.5C 79.6272,27.12 85.2939,24.7867 91.5,23.5 Z"/></g>
<g><path style="opacity:1" fill="#e7cf9b" d="M 217.5,30.5 C 216.318,27.9908 214.318,26.6574 211.5,26.5C 212.751,24.439 214.418,24.1057 216.5,25.5C 217.309,27.0709 217.643,28.7376 217.5,30.5 Z"/></g>
<g><path style="opacity:1" fill="#be8e42" d="M 83.5,15.5 C 84.5,15.5 85.5,15.5 86.5,15.5C 74.9129,19.202 64.0795,24.5353 54,31.5C 54.2513,33.9082 55.7513,35.2416 58.5,35.5C 63.1142,33.629 67.7809,31.9624 72.5,30.5C 65.7763,34.9813 59.1096,39.648 52.5,44.5C 52.5858,43.5041 52.2524,42.6708 51.5,42C 52.7932,41.51 54.1266,41.3433 55.5,41.5C 55.7852,39.712 55.4519,38.0453 54.5,36.5C 53.3247,37.8549 52.3247,37.6883 51.5,36C 49.5,35.3333 47.5,35.3333 45.5,36C 39.8998,41.1741 34.8998,46.6741 30.5,52.5C 29.8333,52.5 29.1667,52.5 28.5,52.5C 30.574,48.587 33.2406,45.087 36.5,42C 45.9764,33.5337 56.3098,26.2004 67.5,20C 72.7972,18.1706 78.1305,16.6706 83.5,15.5 Z"/></g>
<g><path style="opacity:1" fill="#cea961" d="M 211.5,26.5 C 211.5,26.8333 211.5,27.1667 211.5,27.5C 204.772,31.0219 198.772,35.5219 193.5,41C 191.655,42.128 189.655,42.628 187.5,42.5C 194.7,35.9671 202.7,30.6337 211.5,26.5 Z"/></g>
<g><path style="opacity:1" fill="#d8a138" d="M 211.5,26.5 C 214.318,26.6574 216.318,27.9908 217.5,30.5C 219.493,38.4825 221.493,46.4825 223.5,54.5C 223.748,57.5804 224.414,60.5804 225.5,63.5C 225.167,64.1667 224.833,64.8333 224.5,65.5C 223.583,64.8728 222.583,64.5394 221.5,64.5C 220.167,63.5 218.833,62.5 217.5,61.5C 216.082,59.2918 214.082,58.4585 211.5,59C 210.248,61.6327 208.914,64.1327 207.5,66.5C 207.179,65.1825 206.846,63.8492 206.5,62.5C 207.13,55.4789 207.797,48.4789 208.5,41.5C 206.807,37.6777 205.473,38.011 204.5,42.5C 203.548,40.9547 203.215,39.288 203.5,37.5C 200.043,37.3328 199.71,36.3328 202.5,34.5C 203.532,36.0396 204.865,36.5396 206.5,36C 205.483,34.9505 205.316,33.7839 206,32.5C 207.419,31.5399 208.919,30.7065 210.5,30C 211.252,29.3292 211.586,28.4959 211.5,27.5C 211.5,27.1667 211.5,26.8333 211.5,26.5 Z"/></g>
<g><path style="opacity:1" fill="#f7f9f7" d="M 182.5,78.5 C 182.167,79.1667 181.833,79.8333 181.5,80.5C 179.477,83.5203 176.81,85.8536 173.5,87.5C 173.5,75.5 173.5,63.5 173.5,51.5C 173.369,50.6236 173.702,49.9569 174.5,49.5C 175.59,50.727 176.924,51.5604 178.5,52C 182.79,52.9225 187.123,53.4225 191.5,53.5C 188.045,61.6151 185.045,69.9485 182.5,78.5 Z"/></g>
<g><path style="opacity:1" fill="#ca9f59" d="M 187.5,42.5 C 186.115,45.5483 183.781,47.5483 180.5,48.5C 185.243,48.8766 189.576,49.8766 193.5,51.5C 188.823,51.1655 184.156,50.6655 179.5,50C 178.359,49.2588 178.359,48.4255 179.5,47.5C 180.901,46.4793 182.235,45.4793 183.5,44.5C 184.605,43.3995 185.938,42.7329 187.5,42.5 Z"/></g>
<g><path style="opacity:1" fill="#bb8222" d="M 52.5,44.5 C 51.1274,46.2065 49.4607,47.5398 47.5,48.5C 47.44,47.9569 47.1067,47.6236 46.5,47.5C 43.9619,52.196 40.9619,55.8627 37.5,58.5C 37.2635,57.7528 36.9302,56.9195 36.5,56C 35.8333,55.3333 35.1667,55.3333 34.5,56C 33.253,57.9465 31.9197,59.7798 30.5,61.5C 29.2588,58.463 29.2588,55.463 30.5,52.5C 34.8998,46.6741 39.8998,41.1741 45.5,36C 47.5,35.3333 49.5,35.3333 51.5,36C 52.3247,37.6883 53.3247,37.8549 54.5,36.5C 55.4519,38.0453 55.7852,39.712 55.5,41.5C 54.1266,41.3433 52.7932,41.51 51.5,42C 52.2524,42.6708 52.5858,43.5041 52.5,44.5 Z"/></g>
<g><path style="opacity:1" fill="#f2f3dc" d="M 183.5,44.5 C 182.235,45.4793 180.901,46.4793 179.5,47.5C 178.359,48.4255 178.359,49.2588 179.5,50C 184.156,50.6655 188.823,51.1655 193.5,51.5C 193.5,52.8333 193.5,54.1667 193.5,55.5C 190.914,60.5882 188.914,65.9215 187.5,71.5C 185.588,73.6572 183.921,75.9906 182.5,78.5C 185.045,69.9485 188.045,61.6151 191.5,53.5C 187.123,53.4225 182.79,52.9225 178.5,52C 176.924,51.5604 175.59,50.727 174.5,49.5C 173.702,49.9569 173.369,50.6236 173.5,51.5C 163.833,51.5 154.167,51.5 144.5,51.5C 151.493,50.6104 158.66,49.9437 166,49.5C 168.379,49.3463 170.546,48.6797 172.5,47.5C 173.167,47.8333 173.833,48.1667 174.5,48.5C 177.116,46.197 180.116,44.8637 183.5,44.5 Z"/></g>
<g><path style="opacity:1" fill="#dfc28b" d="M 223.5,54.5 C 225.514,58.3764 226.847,62.543 227.5,67C 225.428,67.0363 223.428,66.5363 221.5,65.5C 221.5,65.1667 221.5,64.8333 221.5,64.5C 222.583,64.5394 223.583,64.8728 224.5,65.5C 224.833,64.8333 225.167,64.1667 225.5,63.5C 224.414,60.5804 223.748,57.5804 223.5,54.5 Z"/></g>
<g><path style="opacity:1" fill="#cfab69" d="M 193.5,55.5 C 192.459,61.3012 190.459,66.6345 187.5,71.5C 188.914,65.9215 190.914,60.5882 193.5,55.5 Z"/></g>
<g><path style="opacity:1" fill="#96cfa1" d="M 100.5,61.5 C 102.607,60.5318 104.941,60.1984 107.5,60.5C 106.333,65.2518 105.333,69.9184 104.5,74.5C 104.467,70.1311 104.8,65.7978 105.5,61.5C 103.833,61.5 102.167,61.5 100.5,61.5 Z"/></g>
<g><path style="opacity:1" fill="#d09833" d="M 211.5,27.5 C 211.586,28.4959 211.252,29.3292 210.5,30C 208.919,30.7065 207.419,31.5399 206,32.5C 205.316,33.7839 205.483,34.9505 206.5,36C 204.865,36.5396 203.532,36.0396 202.5,34.5C 199.71,36.3328 200.043,37.3328 203.5,37.5C 203.215,39.288 203.548,40.9547 204.5,42.5C 205.473,38.011 206.807,37.6777 208.5,41.5C 207.797,48.4789 207.13,55.4789 206.5,62.5C 206.846,63.8492 207.179,65.1825 207.5,66.5C 205.747,69.1461 204.747,72.1461 204.5,75.5C 204.167,76.8333 203.833,78.1667 203.5,79.5C 198.354,88.2526 193.021,96.9193 187.5,105.5C 187.5,105.833 187.5,106.167 187.5,106.5C 185.983,106.511 184.816,107.177 184,108.5C 180.644,113.345 177.144,118.012 173.5,122.5C 172.167,122.5 171.5,123.167 171.5,124.5C 169.589,125.075 167.922,126.075 166.5,127.5C 166.498,125.169 167.331,123.169 169,121.5C 170,120.167 171,120.167 172,121.5C 172.49,120.207 172.657,118.873 172.5,117.5C 176.749,116.494 177.415,114.327 174.5,111C 175.67,109.413 176.67,107.747 177.5,106C 173.893,106.592 173.726,105.759 177,103.5C 179.2,99.787 180.7,95.787 181.5,91.5C 182.873,91.6567 184.207,91.49 185.5,91C 183.871,90.4145 182.371,89.5812 181,88.5C 180.098,88.7432 179.265,89.0766 178.5,89.5C 178.5,88.8333 178.5,88.1667 178.5,87.5C 179.496,87.5858 180.329,87.2524 181,86.5C 183.735,81.7009 185.902,76.7009 187.5,71.5C 190.459,66.6345 192.459,61.3012 193.5,55.5C 193.5,54.1667 193.5,52.8333 193.5,51.5C 189.576,49.8766 185.243,48.8766 180.5,48.5C 183.781,47.5483 186.115,45.5483 187.5,42.5C 189.655,42.628 191.655,42.128 193.5,41C 198.772,35.5219 204.772,31.0219 211.5,27.5 Z"/></g>
<g><path style="opacity:1" fill="#35874a" d="M 100.5,61.5 C 102.167,61.5 103.833,61.5 105.5,61.5C 104.8,65.7978 104.467,70.1311 104.5,74.5C 103.907,79.2721 102.907,83.9388 101.5,88.5C 101.167,88.5 100.833,88.5 100.5,88.5C 100.358,84.8499 101.025,81.3499 102.5,78C 102.167,77 101.833,76 101.5,75C 103.228,70.8067 103.895,66.64 103.5,62.5C 100.308,63.866 96.9742,64.6993 93.5,65C 90.1403,66.3418 87.1403,68.1751 84.5,70.5C 83.2921,71.2341 81.9587,71.5674 80.5,71.5C 80.7373,72.791 80.404,73.791 79.5,74.5C 78.8333,74.5 78.1667,74.5 77.5,74.5C 82.9805,66.3635 90.6472,62.0302 100.5,61.5 Z"/></g>
<g><path style="opacity:1" fill="#4e905e" d="M 144.5,51.5 C 154.167,51.5 163.833,51.5 173.5,51.5C 173.5,63.5 173.5,75.5 173.5,87.5C 173.167,87.5 172.833,87.5 172.5,87.5C 172.5,84.5 172.5,81.5 172.5,78.5C 172.826,69.6506 172.493,60.9839 171.5,52.5C 167.833,52.5 164.167,52.5 160.5,52.5C 155.5,52.5 150.5,52.5 145.5,52.5C 145.5,65.1667 145.5,77.8333 145.5,90.5C 145.173,100.015 145.506,109.348 146.5,118.5C 146.44,119.043 146.107,119.376 145.5,119.5C 144.5,97.1766 144.167,74.8433 144.5,52.5C 144.5,52.1667 144.5,51.8333 144.5,51.5 Z"/></g>
<g><path style="opacity:1" fill="#dbb772" d="M 217.5,61.5 C 215.609,60.4639 213.776,60.4639 212,61.5C 210.038,66.5829 207.538,71.2496 204.5,75.5C 204.747,72.1461 205.747,69.1461 207.5,66.5C 208.914,64.1327 210.248,61.6327 211.5,59C 214.082,58.4585 216.082,59.2918 217.5,61.5 Z"/></g>
<g><path style="opacity:1" fill="#dfc599" d="M 31.5,74.5 C 30.9431,79.1646 29.6098,83.4979 27.5,87.5C 28.0569,82.8354 29.3902,78.5021 31.5,74.5 Z"/></g>
<g><path style="opacity:1" fill="#cba05d" d="M 187.5,71.5 C 185.902,76.7009 183.735,81.7009 181,86.5C 180.329,87.2524 179.496,87.5858 178.5,87.5C 179.242,85.0202 180.242,82.6869 181.5,80.5C 181.833,79.8333 182.167,79.1667 182.5,78.5C 183.921,75.9906 185.588,73.6572 187.5,71.5 Z"/></g>
<g><path style="opacity:1" fill="#0f802c" d="M 100.5,88.5 C 99.5,90.5 98.5,92.5 97.5,94.5C 95.0517,96.2845 92.385,97.6178 89.5,98.5C 86.3979,98.154 83.5645,98.8207 81,100.5C 81.0747,96.7894 81.9081,92.7894 83.5,88.5C 84.675,88.719 85.675,88.3857 86.5,87.5C 88.4576,84.8291 89.6243,82.1624 90,79.5C 90.6667,78.1667 91.3333,78.1667 92,79.5C 94.0553,76.0403 93.3886,73.0403 90,70.5C 88.7485,72.0009 87.7485,73.6675 87,75.5C 86.2276,74.1509 85.0609,73.3176 83.5,73C 84.2524,72.3292 84.5858,71.4959 84.5,70.5C 87.1403,68.1751 90.1403,66.3418 93.5,65C 96.9742,64.6993 100.308,63.866 103.5,62.5C 103.895,66.64 103.228,70.8067 101.5,75C 101.833,76 102.167,77 102.5,78C 101.025,81.3499 100.358,84.8499 100.5,88.5 Z"/></g>
<g><path style="opacity:1" fill="#bce0c5" d="M 51.5,80.5 C 58.2614,79.9202 62.5947,82.9202 64.5,89.5C 60.6179,85.7356 56.2845,82.7356 51.5,80.5 Z"/></g>
<g><path style="opacity:1" fill="#0e7630" d="M 84.5,70.5 C 84.5858,71.4959 84.2524,72.3292 83.5,73C 85.0609,73.3176 86.2276,74.1509 87,75.5C 87.7485,73.6675 88.7485,72.0009 90,70.5C 93.3886,73.0403 94.0553,76.0403 92,79.5C 91.3333,78.1667 90.6667,78.1667 90,79.5C 89.6243,82.1624 88.4576,84.8291 86.5,87.5C 85.675,88.3857 84.675,88.719 83.5,88.5C 81.9081,92.7894 81.0747,96.7894 81,100.5C 83.5645,98.8207 86.3979,98.154 89.5,98.5C 89.1667,99.1667 88.8333,99.8333 88.5,100.5C 87.8333,100.5 87.5,100.833 87.5,101.5C 84.8333,101.833 82.1667,102.167 79.5,102.5C 78.1667,102.5 77.5,101.833 77.5,100.5C 80.0855,92.6623 83.7522,85.3289 88.5,78.5C 88.0302,77.537 87.3635,77.537 86.5,78.5C 84.2137,79.3163 82.2137,80.6496 80.5,82.5C 79.1237,84.8326 77.9571,87.1659 77,89.5C 76.6827,87.6992 76.016,87.3659 75,88.5C 73.8982,85.095 74.7315,82.4283 77.5,80.5C 78.2945,78.5049 78.9612,76.5049 79.5,74.5C 80.404,73.791 80.7373,72.791 80.5,71.5C 81.9587,71.5674 83.2921,71.2341 84.5,70.5 Z"/></g>
<g><path style="opacity:1" fill="#0d7528" d="M 160.5,52.5 C 160.158,53.3382 159.492,53.6716 158.5,53.5C 154.5,53.5 150.5,53.5 146.5,53.5C 146.334,60.5079 146.5,67.5079 147,74.5C 148.507,73.4954 149.673,72.162 150.5,70.5C 152.141,72.7691 152.975,75.1024 153,77.5C 154.529,73.9832 155.529,70.3166 156,66.5C 157.022,72.8851 158.355,79.2184 160,85.5C 160.483,84.552 160.649,83.552 160.5,82.5C 162.099,82.7678 163.432,82.4345 164.5,81.5C 164.389,79.3523 165.056,79.019 166.5,80.5C 167.914,79.376 169.414,78.376 171,77.5C 171.5,69.1733 171.666,60.84 171.5,52.5C 172.493,60.9839 172.826,69.6506 172.5,78.5C 171.694,79.9972 171.028,81.6639 170.5,83.5C 167.121,84.1018 165.288,86.1018 165,89.5C 163.732,89.6158 162.398,89.9491 161,90.5C 161.214,95.7104 159.88,100.377 157,104.5C 155.252,102.946 155.085,101.28 156.5,99.5C 156.018,96.4586 155.351,93.4586 154.5,90.5C 152.907,97.0486 151.907,97.0486 151.5,90.5C 150.178,90.33 149.011,90.6634 148,91.5C 147.667,96.1667 147.333,100.833 147,105.5C 146.826,100.316 146.326,95.3165 145.5,90.5C 145.5,77.8333 145.5,65.1667 145.5,52.5C 150.5,52.5 155.5,52.5 160.5,52.5 Z"/></g>
<g><path style="opacity:1" fill="#0d7e27" d="M 158.5,53.5 C 158.918,54.2216 159.584,54.7216 160.5,55C 159.466,62.8728 159.299,71.0395 160,79.5C 161.47,80.2666 162.97,80.9332 164.5,81.5C 163.432,82.4345 162.099,82.7678 160.5,82.5C 160.649,83.552 160.483,84.552 160,85.5C 158.355,79.2184 157.022,72.8851 156,66.5C 155.529,70.3166 154.529,73.9832 153,77.5C 152.975,75.1024 152.141,72.7691 150.5,70.5C 149.673,72.162 148.507,73.4954 147,74.5C 146.5,67.5079 146.334,60.5079 146.5,53.5C 150.5,53.5 154.5,53.5 158.5,53.5 Z"/></g>
<g><path style="opacity:1" fill="#2d902d" d="M 160.5,52.5 C 164.167,52.5 167.833,52.5 171.5,52.5C 171.666,60.84 171.5,69.1733 171,77.5C 169.414,78.376 167.914,79.376 166.5,80.5C 165.056,79.019 164.389,79.3523 164.5,81.5C 162.97,80.9332 161.47,80.2666 160,79.5C 159.299,71.0395 159.466,62.8728 160.5,55C 159.584,54.7216 158.918,54.2216 158.5,53.5C 159.492,53.6716 160.158,53.3382 160.5,52.5 Z"/></g>
<g><path style="opacity:1" fill="#549a58" d="M 213.5,87.5 C 213.5,88.5 213.5,89.5 213.5,90.5C 213.5,91.8333 213.5,93.1667 213.5,94.5C 212.144,91.4233 211.311,88.0899 211,84.5C 210.282,83.5494 209.449,83.3828 208.5,84C 207.915,85.3024 207.249,86.469 206.5,87.5C 206.124,84.3807 207.291,82.0474 210,80.5C 211.832,82.5478 212.999,84.8811 213.5,87.5 Z"/></g>
<g><path style="opacity:1" fill="#b28948" d="M 15.5,74.5 C 15.273,80.558 13.773,86.2247 11,91.5C 10.1129,99.1447 9.61288,106.811 9.5,114.5C 9.5,117.167 9.5,119.833 9.5,122.5C 8.50698,114.016 8.17364,105.349 8.5,96.5C 9.99018,90.5393 11.4902,84.5393 13,78.5C 13.6082,76.9336 14.4415,75.6002 15.5,74.5 Z"/></g>
<g><path style="opacity:1" fill="#d0ebd3" d="M 112.5,84.5 C 121.652,83.5064 130.985,83.1731 140.5,83.5C 140.5,93.1667 140.5,102.833 140.5,112.5C 140.817,116.702 140.483,120.702 139.5,124.5C 139.5,121.833 139.5,119.167 139.5,116.5C 139.5,106.167 139.5,95.8333 139.5,85.5C 130.682,84.5067 121.682,84.1734 112.5,84.5 Z"/></g>
<g><path style="opacity:1" fill="#afd9bf" d="M 50.5,79.5 C 46.2022,78.8005 41.8689,78.4672 37.5,78.5C 37.9629,81.4824 38.2962,84.4824 38.5,87.5C 36.8255,84.4928 36.1588,81.1595 36.5,77.5C 40.1817,77.3347 43.8484,77.5014 47.5,78C 48.7375,78.2321 49.7375,78.7321 50.5,79.5 Z"/></g>
<g><path style="opacity:1" fill="#2e8838" d="M 213.5,94.5 C 214.472,103.75 214.805,113.083 214.5,122.5C 214.5,124.167 214.5,125.833 214.5,127.5C 212.882,130.888 211.882,134.554 211.5,138.5C 211.167,138.5 210.833,138.5 210.5,138.5C 213.995,124.082 214.328,109.582 211.5,95C 211.167,94.1667 210.833,93.3333 210.5,92.5C 209.833,93.8333 209.167,95.1667 208.5,96.5C 206.253,95.6258 203.92,95.2924 201.5,95.5C 202.669,92.4887 204.336,89.822 206.5,87.5C 207.249,86.469 207.915,85.3024 208.5,84C 209.449,83.3828 210.282,83.5494 211,84.5C 211.311,88.0899 212.144,91.4233 213.5,94.5 Z"/></g>
<g><path style="opacity:1" fill="#b47e24" d="M 47.5,48.5 C 45.5221,51.3333 43.6888,54.3333 42,57.5C 37.003,62.1445 33.503,67.8111 31.5,74.5C 29.3902,78.5021 28.0569,82.8354 27.5,87.5C 26.0486,92.5374 25.3819,97.7041 25.5,103C 25.7855,110.21 26.4521,117.376 27.5,124.5C 28.3421,128.977 28.6755,133.31 28.5,137.5C 27.5,138.167 26.5,138.833 25.5,139.5C 26.1667,140.833 26.8333,142.167 27.5,143.5C 26.9984,144.521 26.3317,144.688 25.5,144C 23.1002,141.334 20.6002,138.834 18,136.5C 17.6667,137.167 17.3333,137.833 17,138.5C 16.2571,136.559 16.4238,134.726 17.5,133C 14.6193,131.749 12.786,129.583 12,126.5C 11.6651,122.264 10.8318,118.264 9.5,114.5C 9.61288,106.811 10.1129,99.1447 11,91.5C 13.773,86.2247 15.273,80.558 15.5,74.5C 18.1835,66.1594 22.5168,58.8261 28.5,52.5C 29.1667,52.5 29.8333,52.5 30.5,52.5C 29.2588,55.463 29.2588,58.463 30.5,61.5C 31.9197,59.7798 33.253,57.9465 34.5,56C 35.1667,55.3333 35.8333,55.3333 36.5,56C 36.9302,56.9195 37.2635,57.7528 37.5,58.5C 40.9619,55.8627 43.9619,52.196 46.5,47.5C 47.1067,47.6236 47.44,47.9569 47.5,48.5 Z"/></g>
<g><path style="opacity:1" fill="#126d32" d="M 77.5,74.5 C 78.1667,74.5 78.8333,74.5 79.5,74.5C 78.9612,76.5049 78.2945,78.5049 77.5,80.5C 74.7315,82.4283 73.8982,85.095 75,88.5C 76.016,87.3659 76.6827,87.6992 77,89.5C 77.9571,87.1659 79.1237,84.8326 80.5,82.5C 82.2137,80.6496 84.2137,79.3163 86.5,78.5C 81.5495,84.7955 77.8829,91.7955 75.5,99.5C 74.8333,99.5 74.1667,99.5 73.5,99.5C 72.329,93.1402 72.329,86.8069 73.5,80.5C 74.8333,78.5 76.1667,76.5 77.5,74.5 Z"/></g>
<g><path style="opacity:1" fill="#478456" d="M 112.5,84.5 C 121.682,84.1734 130.682,84.5067 139.5,85.5C 135.167,85.5 130.833,85.5 126.5,85.5C 122.167,85.5 117.833,85.5 113.5,85.5C 113.5,96.1667 113.5,106.833 113.5,117.5C 112.868,125.573 113.535,133.24 115.5,140.5C 115.5,140.833 115.5,141.167 115.5,141.5C 115.167,141.5 114.833,141.5 114.5,141.5C 112.513,123.197 111.846,104.53 112.5,85.5C 112.5,85.1667 112.5,84.8333 112.5,84.5 Z"/></g>
<g><path style="opacity:1" fill="#096a29" d="M 172.5,78.5 C 172.5,81.5 172.5,84.5 172.5,87.5C 167.238,95.0308 161.738,102.364 156,109.5C 152.964,112.704 149.797,115.704 146.5,118.5C 145.506,109.348 145.173,100.015 145.5,90.5C 146.326,95.3165 146.826,100.316 147,105.5C 147.333,100.833 147.667,96.1667 148,91.5C 149.011,90.6634 150.178,90.33 151.5,90.5C 151.907,97.0486 152.907,97.0486 154.5,90.5C 155.351,93.4586 156.018,96.4586 156.5,99.5C 155.085,101.28 155.252,102.946 157,104.5C 159.88,100.377 161.214,95.7104 161,90.5C 162.398,89.9491 163.732,89.6158 165,89.5C 165.288,86.1018 167.121,84.1018 170.5,83.5C 171.028,81.6639 171.694,79.9972 172.5,78.5 Z"/></g>
<g><path style="opacity:1" fill="#36942e" d="M 126.5,86.5 C 130.5,86.5 134.5,86.5 138.5,86.5C 138.666,93.5079 138.5,100.508 138,107.5C 136.403,110.219 134.237,112.386 131.5,114C 129.67,114.182 128.003,113.682 126.5,112.5C 126.5,112.167 126.5,111.833 126.5,111.5C 126.5,103.167 126.5,94.8333 126.5,86.5 Z"/></g>
<g><path style="opacity:1" fill="#b0e4bc" d="M 100.5,88.5 C 100.833,88.5 101.167,88.5 101.5,88.5C 101.378,91.2921 100.044,93.2921 97.5,94.5C 98.5,92.5 99.5,90.5 100.5,88.5 Z"/></g>
<g><path style="opacity:1" fill="#ace5be" d="M 77.5,100.5 C 76.5084,100.672 75.8417,100.338 75.5,99.5C 77.8829,91.7955 81.5495,84.7955 86.5,78.5C 87.3635,77.537 88.0302,77.537 88.5,78.5C 83.7522,85.3289 80.0855,92.6623 77.5,100.5 Z"/></g>
<g><path style="opacity:1" fill="#f0e0b7" d="M 203.5,79.5 C 201.064,89.9389 195.731,98.6055 187.5,105.5C 193.021,96.9193 198.354,88.2526 203.5,79.5 Z"/></g>
<g><path style="opacity:1" fill="#9dcfa3" d="M 213.5,90.5 C 214.268,91.2625 214.768,92.2625 215,93.5C 215.825,103.342 215.658,113.009 214.5,122.5C 214.805,113.083 214.472,103.75 213.5,94.5C 213.5,93.1667 213.5,91.8333 213.5,90.5 Z"/></g>
<g><path style="opacity:1" fill="#1a7038" d="M 50.5,79.5 C 51.1667,79.5 51.5,79.8333 51.5,80.5C 47.815,80.1046 44.1483,79.9379 40.5,80C 39.9415,80.7247 39.6082,81.5581 39.5,82.5C 40.7728,86.4735 41.9395,90.4735 43,94.5C 44.5445,93.1787 45.7112,93.5121 46.5,95.5C 45.7439,97.4506 45.4106,99.2839 45.5,101C 47.1066,102.049 47.7733,103.549 47.5,105.5C 51.1173,107.148 54.784,108.315 58.5,109C 58.3744,107.026 58.2078,104.859 58,102.5C 54.9196,100.295 53.4196,97.2952 53.5,93.5C 54.2719,94.6935 55.2719,95.6935 56.5,96.5C 60.5664,101.617 63.8998,107.284 66.5,113.5C 64.9255,114.631 63.2588,114.798 61.5,114C 57.6048,111.938 53.6048,110.105 49.5,108.5C 47.5398,106.844 45.5398,105.177 43.5,103.5C 42.5376,99.6052 41.2043,95.9385 39.5,92.5C 38.962,90.8828 38.6287,89.2161 38.5,87.5C 38.2962,84.4824 37.9629,81.4824 37.5,78.5C 41.8689,78.4672 46.2022,78.8005 50.5,79.5 Z"/></g>
<g><path style="opacity:1" fill="#bae4c3" d="M 97.5,94.5 C 95.5302,98.1507 92.5302,100.151 88.5,100.5C 88.8333,99.8333 89.1667,99.1667 89.5,98.5C 92.385,97.6178 95.0517,96.2845 97.5,94.5 Z"/></g>
<g><path style="opacity:1" fill="#c79d54" d="M 178.5,87.5 C 178.5,88.1667 178.5,88.8333 178.5,89.5C 176.902,94.3569 174.069,98.3569 170,101.5C 169.299,104.327 168.299,106.994 167,109.5C 166.577,108.044 165.744,107.544 164.5,108C 159.341,113.903 154.341,119.736 149.5,125.5C 146.265,126.733 143.265,128.399 140.5,130.5C 145.093,126.083 149.926,121.75 155,117.5C 163.576,107.978 171.409,97.9784 178.5,87.5 Z"/></g>
<g><path style="opacity:1" fill="#bde1cc" d="M 39.5,92.5 C 41.2043,95.9385 42.5376,99.6052 43.5,103.5C 39.9906,100.761 38.6572,97.0943 39.5,92.5 Z"/></g>
<g><path style="opacity:1" fill="#0d7330" d="M 51.5,80.5 C 56.2845,82.7356 60.6179,85.7356 64.5,89.5C 65.6923,91.1131 66.6923,92.7798 67.5,94.5C 67.9629,97.4824 68.2962,100.482 68.5,103.5C 68.3359,106.187 68.5026,108.854 69,111.5C 69.6708,112.252 70.5041,112.586 71.5,112.5C 72.4731,114.948 72.8064,117.615 72.5,120.5C 72.5,121.167 72.5,121.833 72.5,122.5C 71.8582,130.049 71.0249,137.716 70,145.5C 68.5943,137.251 68.0943,128.917 68.5,120.5C 68.5355,111.271 65.5355,103.271 59.5,96.5C 58.8333,96.1667 58.1667,95.8333 57.5,95.5C 55.7059,93.2034 53.7059,91.0367 51.5,89C 50.6683,88.3123 50.0016,88.479 49.5,89.5C 51.2156,90.5487 52.5489,91.882 53.5,93.5C 53.4196,97.2952 54.9196,100.295 58,102.5C 58.2078,104.859 58.3744,107.026 58.5,109C 54.784,108.315 51.1173,107.148 47.5,105.5C 47.7733,103.549 47.1066,102.049 45.5,101C 45.4106,99.2839 45.7439,97.4506 46.5,95.5C 45.7112,93.5121 44.5445,93.1787 43,94.5C 41.9395,90.4735 40.7728,86.4735 39.5,82.5C 39.6082,81.5581 39.9415,80.7247 40.5,80C 44.1483,79.9379 47.815,80.1046 51.5,80.5 Z"/></g>
<g><path style="opacity:1" fill="#14812c" d="M 59.5,96.5 C 57.6247,93.7621 55.9581,90.7621 54.5,87.5C 52.2895,86.8772 50.2895,85.8772 48.5,84.5C 48.9996,83.1195 49.9996,82.4528 51.5,82.5C 53.4872,84.3274 55.8205,85.3274 58.5,85.5C 58.5,86.5 58.5,87.5 58.5,88.5C 60.9032,88.393 62.7365,89.393 64,91.5C 64.4429,95.1013 65.6096,98.4346 67.5,101.5C 67.3333,101.833 67.1667,102.167 67,102.5C 64.6243,101.624 63.1243,99.9575 62.5,97.5C 61.5832,96.8728 60.5832,96.5394 59.5,96.5 Z"/></g>
<g><path style="opacity:1" fill="#97e0b0" d="M 57.5,95.5 C 56.8333,95.5 56.5,95.8333 56.5,96.5C 55.2719,95.6935 54.2719,94.6935 53.5,93.5C 52.5489,91.882 51.2156,90.5487 49.5,89.5C 50.0016,88.479 50.6683,88.3123 51.5,89C 53.7059,91.0367 55.7059,93.2034 57.5,95.5 Z"/></g>
<g><path style="opacity:1" fill="#087226" d="M 126.5,86.5 C 126.5,94.8333 126.5,103.167 126.5,111.5C 125.244,111.096 124.077,110.429 123,109.5C 120.767,111.747 119.1,111.081 118,107.5C 116.249,109.49 115.249,111.823 115,114.5C 114.5,105.173 114.334,95.8393 114.5,86.5C 118.5,86.5 122.5,86.5 126.5,86.5 Z"/></g>
<g><path style="opacity:1" fill="#e0f3e6" d="M 73.5,80.5 C 72.329,86.8069 72.329,93.1402 73.5,99.5C 73.8039,100.15 74.1373,100.817 74.5,101.5C 73.5435,103.075 72.8769,104.742 72.5,106.5C 71.0337,107.347 70.2004,108.68 70,110.5C 69.8138,107.964 69.3138,105.631 68.5,103.5C 68.2962,100.482 67.9629,97.4824 67.5,94.5C 69.4459,96.734 70.6126,99.4006 71,102.5C 71.3333,102.167 71.6667,101.833 72,101.5C 70.7164,95.0485 70.2164,88.5485 70.5,82C 71.2438,80.9614 72.2438,80.4614 73.5,80.5 Z"/></g>
<g><path style="opacity:1" fill="#edf4ec" d="M 217.5,61.5 C 218.833,62.5 220.167,63.5 221.5,64.5C 221.5,64.8333 221.5,65.1667 221.5,65.5C 219.007,64.2033 216.34,63.2033 213.5,62.5C 211.322,66.8556 209.156,71.1889 207,75.5C 206.219,76.9437 206.386,78.277 207.5,79.5C 209.042,78.2532 210.542,78.2532 212,79.5C 213.252,82.0135 213.752,84.6802 213.5,87.5C 212.999,84.8811 211.832,82.5478 210,80.5C 207.291,82.0474 206.124,84.3807 206.5,87.5C 204.336,89.822 202.669,92.4887 201.5,95.5C 199.686,97.7641 197.853,100.097 196,102.5C 195.517,103.448 195.351,104.448 195.5,105.5C 194.279,106.028 193.113,106.695 192,107.5C 188.977,112.01 185.811,116.344 182.5,120.5C 178.215,124.119 174.215,128.119 170.5,132.5C 164.19,136.815 158.19,141.482 152.5,146.5C 139.3,154.766 125.3,161.433 110.5,166.5C 105.62,167.467 100.953,168.801 96.5,170.5C 84.2475,172.25 71.9142,172.917 59.5,172.5C 51.7103,172.384 44.377,170.717 37.5,167.5C 42.2877,167.704 46.9544,167.704 51.5,167.5C 52.3081,167.808 52.9747,168.308 53.5,169C 58.0115,169.401 62.5115,169.901 67,170.5C 68.3847,170.486 69.5514,170.152 70.5,169.5C 82.0557,169.925 93.0557,168.091 103.5,164C 111.74,162.495 119.573,159.995 127,156.5C 128.84,157.833 129.34,157.666 128.5,156C 131.81,154.138 134.81,151.972 137.5,149.5C 140.557,147.956 143.224,145.789 145.5,143C 152.533,140.103 158.533,135.937 163.5,130.5C 166.891,129.471 169.557,127.471 171.5,124.5C 171.5,123.167 172.167,122.5 173.5,122.5C 178.628,117.582 183.295,112.249 187.5,106.5C 187.5,106.167 187.5,105.833 187.5,105.5C 195.731,98.6055 201.064,89.9389 203.5,79.5C 203.833,78.1667 204.167,76.8333 204.5,75.5C 207.538,71.2496 210.038,66.5829 212,61.5C 213.776,60.4639 215.609,60.4639 217.5,61.5 Z"/></g>
<g><path style="opacity:1" fill="#eef7f1" d="M 87.5,101.5 C 87.4226,102.75 86.756,103.583 85.5,104C 85.8333,104.333 86.1667,104.667 86.5,105C 84.8876,105.72 83.3876,105.554 82,104.5C 81.5172,105.448 81.3505,106.448 81.5,107.5C 90.2243,108.868 98.891,109.868 107.5,110.5C 99.1667,110.5 90.8333,110.5 82.5,110.5C 82.5,124.5 82.5,138.5 82.5,152.5C 81.5707,153.315 80.5707,154.148 79.5,155C 75.5138,155.499 71.5138,155.666 67.5,155.5C 65.3312,147.144 64.9978,138.81 66.5,130.5C 66.1786,136.026 66.5119,141.36 67.5,146.5C 67.3072,149.811 68.3072,152.478 70.5,154.5C 72.5,154.5 74.5,154.5 76.5,154.5C 76.7678,152.901 76.4345,151.568 75.5,150.5C 75.1161,146.414 74.2827,142.414 73,138.5C 72.5006,133.177 72.334,127.844 72.5,122.5C 72.5,121.833 72.5,121.167 72.5,120.5C 73.8149,114.945 75.1482,109.278 76.5,103.5C 77.791,103.737 78.791,103.404 79.5,102.5C 82.1667,102.167 84.8333,101.833 87.5,101.5 Z"/></g>
<g><path style="opacity:1" fill="#21872b" d="M 210.5,138.5 C 207.117,143.402 204.284,148.736 202,154.5C 201.586,154.043 201.086,153.709 200.5,153.5C 196.991,154.169 193.658,155.336 190.5,157C 189.91,158.509 189.244,160.009 188.5,161.5C 187.672,160.585 186.672,159.919 185.5,159.5C 183.484,160.178 181.484,160.844 179.5,161.5C 182.433,159.355 185.433,157.188 188.5,155C 191.696,154.604 194.53,153.438 197,151.5C 197.333,151.833 197.667,152.167 198,152.5C 199.667,149.167 201.333,145.833 203,142.5C 205.16,130.68 207.327,118.847 209.5,107C 208.22,104.266 207.054,101.433 206,98.5C 201.62,107.898 195.62,116.232 188,123.5C 185.724,128.576 184.891,133.743 185.5,139C 183.875,139.853 183.542,140.853 184.5,142C 182.354,144.795 181.187,147.961 181,151.5C 178.734,154.859 176.567,158.192 174.5,161.5C 173.737,160.732 172.737,160.232 171.5,160C 174.46,157.449 175.627,154.282 175,150.5C 174.346,151.696 173.846,151.696 173.5,150.5C 174.833,149.5 174.833,148.5 173.5,147.5C 174.325,146.614 175.325,146.281 176.5,146.5C 175.793,143.214 175.46,139.881 175.5,136.5C 177.788,133.544 180.788,131.877 184.5,131.5C 184.347,127.125 185.68,123.292 188.5,120C 188.043,119.586 187.709,119.086 187.5,118.5C 188.905,116.349 190.739,114.682 193,113.5C 193.791,112.255 194.291,110.922 194.5,109.5C 194.833,108.167 195.167,106.833 195.5,105.5C 195.351,104.448 195.517,103.448 196,102.5C 197.853,100.097 199.686,97.7641 201.5,95.5C 203.92,95.2924 206.253,95.6258 208.5,96.5C 209.167,95.1667 209.833,93.8333 210.5,92.5C 210.833,93.3333 211.167,94.1667 211.5,95C 214.328,109.582 213.995,124.082 210.5,138.5 Z"/></g>
<g><path style="opacity:1" fill="#c78d2a" d="M 166.5,127.5 C 165.167,128.167 164.167,129.167 163.5,130.5C 161.066,132.374 158.232,133.707 155,134.5C 153.831,133.991 152.998,133.158 152.5,132C 153.819,128.803 152.819,126.637 149.5,125.5C 154.341,119.736 159.341,113.903 164.5,108C 165.744,107.544 166.577,108.044 167,109.5C 168.299,106.994 169.299,104.327 170,101.5C 174.069,98.3569 176.902,94.3569 178.5,89.5C 179.265,89.0766 180.098,88.7432 181,88.5C 182.371,89.5812 183.871,90.4145 185.5,91C 184.207,91.49 182.873,91.6567 181.5,91.5C 180.7,95.787 179.2,99.787 177,103.5C 173.726,105.759 173.893,106.592 177.5,106C 176.67,107.747 175.67,109.413 174.5,111C 177.415,114.327 176.749,116.494 172.5,117.5C 172.657,118.873 172.49,120.207 172,121.5C 171,120.167 170,120.167 169,121.5C 167.331,123.169 166.498,125.169 166.5,127.5 Z"/></g>
<g><path style="opacity:1" fill="#f2e9d0" d="M 8.5,96.5 C 8.17364,105.349 8.50698,114.016 9.5,122.5C 10.7974,127.737 11.4641,133.07 11.5,138.5C 6.21051,124.788 5.21051,110.788 8.5,96.5 Z"/></g>
<g><path style="opacity:1" fill="#9ed6aa" d="M 68.5,103.5 C 69.3138,105.631 69.8138,107.964 70,110.5C 70.2004,108.68 71.0337,107.347 72.5,106.5C 71.8505,108.435 71.5172,110.435 71.5,112.5C 70.5041,112.586 69.6708,112.252 69,111.5C 68.5026,108.854 68.3359,106.187 68.5,103.5 Z"/></g>
<g><path style="opacity:1" fill="#408a57" d="M 73.5,99.5 C 74.1667,99.5 74.8333,99.5 75.5,99.5C 75.8417,100.338 76.5084,100.672 77.5,100.5C 77.5,101.833 78.1667,102.5 79.5,102.5C 78.791,103.404 77.791,103.737 76.5,103.5C 75.1482,109.278 73.8149,114.945 72.5,120.5C 72.8064,117.615 72.4731,114.948 71.5,112.5C 71.5172,110.435 71.8505,108.435 72.5,106.5C 72.8769,104.742 73.5435,103.075 74.5,101.5C 74.1373,100.817 73.8039,100.15 73.5,99.5 Z"/></g>
<g><path style="opacity:1" fill="#ebd4a8" d="M 187.5,106.5 C 183.295,112.249 178.628,117.582 173.5,122.5C 177.144,118.012 180.644,113.345 184,108.5C 184.816,107.177 185.983,106.511 187.5,106.5 Z"/></g>
<g><path style="opacity:1" fill="#4b8f55" d="M 195.5,105.5 C 195.167,106.833 194.833,108.167 194.5,109.5C 190.73,113.32 186.73,116.986 182.5,120.5C 185.811,116.344 188.977,112.01 192,107.5C 193.113,106.695 194.279,106.028 195.5,105.5 Z"/></g>
<g><path style="opacity:1" fill="#c6e5d0" d="M 57.5,95.5 C 58.1667,95.8333 58.8333,96.1667 59.5,96.5C 65.5355,103.271 68.5355,111.271 68.5,120.5C 67.507,128.984 67.1736,137.651 67.5,146.5C 66.5119,141.36 66.1786,136.026 66.5,130.5C 66.5,125.833 66.5,121.167 66.5,116.5C 62.2464,115.354 57.913,114.687 53.5,114.5C 53.5,113.5 53.5,112.5 53.5,111.5C 51.3812,111.532 50.0478,110.532 49.5,108.5C 53.6048,110.105 57.6048,111.938 61.5,114C 63.2588,114.798 64.9255,114.631 66.5,113.5C 63.8998,107.284 60.5664,101.617 56.5,96.5C 56.5,95.8333 56.8333,95.5 57.5,95.5 Z"/></g>
<g><path style="opacity:1" fill="#78af84" d="M 107.5,110.5 C 107.5,110.833 107.5,111.167 107.5,111.5C 103.5,111.5 99.5,111.5 95.5,111.5C 92.5,111.5 89.5,111.5 86.5,111.5C 85.5,111.5 84.5,111.5 83.5,111.5C 82.8519,125.209 83.5186,138.542 85.5,151.5C 84.791,152.404 83.791,152.737 82.5,152.5C 82.5,138.5 82.5,124.5 82.5,110.5C 90.8333,110.5 99.1667,110.5 107.5,110.5 Z"/></g>
<g><path style="opacity:1" fill="#e9f2e4" d="M 144.5,52.5 C 144.167,74.8433 144.5,97.1766 145.5,119.5C 146.107,119.376 146.44,119.043 146.5,118.5C 149.797,115.704 152.964,112.704 156,109.5C 161.738,102.364 167.238,95.0308 172.5,87.5C 172.833,87.5 173.167,87.5 173.5,87.5C 176.81,85.8536 179.477,83.5203 181.5,80.5C 180.242,82.6869 179.242,85.0202 178.5,87.5C 171.409,97.9784 163.576,107.978 155,117.5C 149.926,121.75 145.093,126.083 140.5,130.5C 135.179,133.498 130.179,136.998 125.5,141C 119.802,142.909 114.469,145.409 109.5,148.5C 98.5628,152.734 87.2295,155.401 75.5,156.5C 68.6457,156.824 61.979,156.491 55.5,155.5C 59.5,155.5 63.5,155.5 67.5,155.5C 71.5138,155.666 75.5138,155.499 79.5,155C 80.5707,154.148 81.5707,153.315 82.5,152.5C 83.791,152.737 84.791,152.404 85.5,151.5C 91.5991,150.142 97.5991,148.476 103.5,146.5C 105.167,146.5 106.833,146.5 108.5,146.5C 111.418,144.952 114.418,143.452 117.5,142C 116.906,141.536 116.239,141.369 115.5,141.5C 115.5,141.167 115.5,140.833 115.5,140.5C 119.15,138.528 122.816,136.528 126.5,134.5C 127.71,134.068 128.71,133.401 129.5,132.5C 132.873,129.822 136.206,127.156 139.5,124.5C 140.483,120.702 140.817,116.702 140.5,112.5C 141.151,113.091 141.818,113.757 142.5,114.5C 143.167,93.6706 143.833,73.004 144.5,52.5 Z"/></g>
<g><path style="opacity:1" fill="#207932" d="M 126.5,86.5 C 126.5,86.1667 126.5,85.8333 126.5,85.5C 130.833,85.5 135.167,85.5 139.5,85.5C 139.5,95.8333 139.5,106.167 139.5,116.5C 128.762,117.092 125.428,122.425 129.5,132.5C 128.71,133.401 127.71,134.068 126.5,134.5C 126.031,132.005 126.031,129.339 126.5,126.5C 126.5,121.833 126.5,117.167 126.5,112.5C 128.003,113.682 129.67,114.182 131.5,114C 134.237,112.386 136.403,110.219 138,107.5C 138.5,100.508 138.666,93.5079 138.5,86.5C 134.5,86.5 130.5,86.5 126.5,86.5 Z"/></g>
<g><path style="opacity:1" fill="#076227" d="M 139.5,116.5 C 139.5,119.167 139.5,121.833 139.5,124.5C 136.206,127.156 132.873,129.822 129.5,132.5C 125.428,122.425 128.762,117.092 139.5,116.5 Z"/></g>
<g><path style="opacity:1" fill="#026623" d="M 126.5,85.5 C 126.5,85.8333 126.5,86.1667 126.5,86.5C 122.5,86.5 118.5,86.5 114.5,86.5C 114.334,95.8393 114.5,105.173 115,114.5C 115.249,111.823 116.249,109.49 118,107.5C 119.1,111.081 120.767,111.747 123,109.5C 124.077,110.429 125.244,111.096 126.5,111.5C 126.5,111.833 126.5,112.167 126.5,112.5C 126.5,117.167 126.5,121.833 126.5,126.5C 124.434,125.752 122.6,126.419 121,128.5C 118.916,125.967 116.916,125.967 115,128.5C 114.823,124.644 114.323,120.977 113.5,117.5C 113.5,106.833 113.5,96.1667 113.5,85.5C 117.833,85.5 122.167,85.5 126.5,85.5 Z"/></g>
<g><path style="opacity:1" fill="#a7cdad" d="M 107.5,110.5 C 108.495,122.322 108.828,134.322 108.5,146.5C 106.833,146.5 105.167,146.5 103.5,146.5C 104.287,144.896 105.62,144.229 107.5,144.5C 107.5,140.5 107.5,136.5 107.5,132.5C 107.5,125.5 107.5,118.5 107.5,111.5C 107.5,111.167 107.5,110.833 107.5,110.5 Z"/></g>
<g><path style="opacity:1" fill="#c4e9cf" d="M 112.5,85.5 C 111.846,104.53 112.513,123.197 114.5,141.5C 113.791,142.404 112.791,142.737 111.5,142.5C 111.17,123.326 111.503,104.326 112.5,85.5 Z"/></g>
<g><path style="opacity:1" fill="#3d9a30" d="M 95.5,111.5 C 99.5,111.5 103.5,111.5 107.5,111.5C 107.5,118.5 107.5,125.5 107.5,132.5C 107.167,132.5 106.833,132.5 106.5,132.5C 103.152,134.375 99.4858,135.375 95.5,135.5C 95.5,127.5 95.5,119.5 95.5,111.5 Z"/></g>
<g><path style="opacity:1" fill="#e2c697" d="M 171.5,124.5 C 169.557,127.471 166.891,129.471 163.5,130.5C 164.167,129.167 165.167,128.167 166.5,127.5C 167.922,126.075 169.589,125.075 171.5,124.5 Z"/></g>
<g><path style="opacity:1" fill="#087227" d="M 86.5,111.5 C 89.5,111.5 92.5,111.5 95.5,111.5C 95.5,119.5 95.5,127.5 95.5,135.5C 99.4858,135.375 103.152,134.375 106.5,132.5C 106.692,135.809 105.359,138.309 102.5,140C 104.878,140.974 104.544,141.641 101.5,142C 99.6667,143.833 97.8333,145.667 96,147.5C 95.8184,144.774 95.3184,142.107 94.5,139.5C 93.8076,140.025 93.3076,140.692 93,141.5C 92.342,139.892 92.842,138.725 94.5,138C 93.9747,137.308 93.3081,136.808 92.5,136.5C 91.1503,139.39 89.3169,141.056 87,141.5C 84.1897,131.369 84.023,121.369 86.5,111.5 Z"/></g>
<g><path style="opacity:1" fill="#dcbf94" d="M 29.5,130.5 C 31.873,132.579 33.2064,135.246 33.5,138.5C 31.2295,136.388 29.8961,133.721 29.5,130.5 Z"/></g>
<g><path style="opacity:1" fill="#065b25" d="M 113.5,117.5 C 114.323,120.977 114.823,124.644 115,128.5C 116.916,125.967 118.916,125.967 121,128.5C 122.6,126.419 124.434,125.752 126.5,126.5C 126.031,129.339 126.031,132.005 126.5,134.5C 122.816,136.528 119.15,138.528 115.5,140.5C 113.535,133.24 112.868,125.573 113.5,117.5 Z"/></g>
<g><path style="opacity:1" fill="#0a6129" d="M 86.5,111.5 C 84.023,121.369 84.1897,131.369 87,141.5C 89.3169,141.056 91.1503,139.39 92.5,136.5C 93.3081,136.808 93.9747,137.308 94.5,138C 92.842,138.725 92.342,139.892 93,141.5C 93.3076,140.692 93.8076,140.025 94.5,139.5C 95.3184,142.107 95.8184,144.774 96,147.5C 97.8333,145.667 99.6667,143.833 101.5,142C 104.544,141.641 104.878,140.974 102.5,140C 105.359,138.309 106.692,135.809 106.5,132.5C 106.833,132.5 107.167,132.5 107.5,132.5C 107.5,136.5 107.5,140.5 107.5,144.5C 105.62,144.229 104.287,144.896 103.5,146.5C 97.5991,148.476 91.5991,150.142 85.5,151.5C 83.5186,138.542 82.8519,125.209 83.5,111.5C 84.5,111.5 85.5,111.5 86.5,111.5 Z"/></g>
<g><path style="opacity:1" fill="#3c972e" d="M 179.5,161.5 C 178.167,161.833 176.833,162.167 175.5,162.5C 174.833,162.5 174.5,162.167 174.5,161.5C 176.567,158.192 178.734,154.859 181,151.5C 181.187,147.961 182.354,144.795 184.5,142C 183.542,140.853 183.875,139.853 185.5,139C 184.891,133.743 185.724,128.576 188,123.5C 195.62,116.232 201.62,107.898 206,98.5C 207.054,101.433 208.22,104.266 209.5,107C 207.327,118.847 205.16,130.68 203,142.5C 201.333,145.833 199.667,149.167 198,152.5C 197.667,152.167 197.333,151.833 197,151.5C 194.53,153.438 191.696,154.604 188.5,155C 185.433,157.188 182.433,159.355 179.5,161.5 Z"/></g>
<g><path style="opacity:1" fill="#b8822b" d="M 149.5,125.5 C 152.819,126.637 153.819,128.803 152.5,132C 152.998,133.158 153.831,133.991 155,134.5C 158.232,133.707 161.066,132.374 163.5,130.5C 158.533,135.937 152.533,140.103 145.5,143C 143.224,145.789 140.557,147.956 137.5,149.5C 133.979,149.83 130.979,151.33 128.5,154C 126.753,154.352 125.086,154.852 123.5,155.5C 119.193,156.498 114.86,156.998 110.5,157C 109.5,156.667 108.5,156.333 107.5,156C 108.973,155.29 109.64,154.124 109.5,152.5C 112.011,152.162 114.345,152.162 116.5,152.5C 118.66,150.907 118.827,149.24 117,147.5C 114.619,148.435 112.119,148.768 109.5,148.5C 114.469,145.409 119.802,142.909 125.5,141C 130.179,136.998 135.179,133.498 140.5,130.5C 143.265,128.399 146.265,126.733 149.5,125.5 Z"/></g>
<g><path style="opacity:1" fill="#97ca9e" d="M 210.5,138.5 C 210.833,138.5 211.167,138.5 211.5,138.5C 211.585,141.649 210.585,144.316 208.5,146.5C 208.963,143.779 209.629,141.112 210.5,138.5 Z"/></g>
<g><path style="opacity:1" fill="#127d29" d="M 175.5,136.5 C 175.46,139.881 175.793,143.214 176.5,146.5C 175.325,146.281 174.325,146.614 173.5,147.5C 174.833,148.5 174.833,149.5 173.5,150.5C 173.846,151.696 174.346,151.696 175,150.5C 175.627,154.282 174.46,157.449 171.5,160C 172.737,160.232 173.737,160.732 174.5,161.5C 174.5,162.167 174.833,162.5 175.5,162.5C 171.824,163.216 167.824,163.716 163.5,164C 165.973,162.258 165.973,160.425 163.5,158.5C 163.818,157.353 164.484,156.519 165.5,156C 163.5,155 161.5,154 159.5,153C 161.763,152.721 164.097,151.888 166.5,150.5C 166.67,149.178 166.337,148.011 165.5,147C 167.333,145.5 169.167,144 171,142.5C 171.535,144.271 172.369,144.604 173.5,143.5C 172.123,140.586 172.79,138.253 175.5,136.5 Z"/></g>
<g><path style="opacity:1" fill="#1a6934" d="M 68.5,120.5 C 68.0943,128.917 68.5943,137.251 70,145.5C 71.0249,137.716 71.8582,130.049 72.5,122.5C 72.334,127.844 72.5006,133.177 73,138.5C 74.2827,142.414 75.1161,146.414 75.5,150.5C 75.5,151.5 75.5,152.5 75.5,153.5C 73.5853,153.216 71.9187,153.549 70.5,154.5C 68.3072,152.478 67.3072,149.811 67.5,146.5C 67.1736,137.651 67.507,128.984 68.5,120.5 Z"/></g>
<g><path style="opacity:1" fill="#a67020" d="M 9.5,114.5 C 10.8318,118.264 11.6651,122.264 12,126.5C 12.786,129.583 14.6193,131.749 17.5,133C 16.4238,134.726 16.2571,136.559 17,138.5C 17.3333,137.833 17.6667,137.167 18,136.5C 20.6002,138.834 23.1002,141.334 25.5,144C 26.3317,144.688 26.9984,144.521 27.5,143.5C 26.8333,142.167 26.1667,140.833 25.5,139.5C 26.5,138.833 27.5,138.167 28.5,137.5C 28.6755,133.31 28.3421,128.977 27.5,124.5C 28.7384,126.214 29.405,128.214 29.5,130.5C 29.8961,133.721 31.2295,136.388 33.5,138.5C 35.1667,141.167 36.8333,143.833 38.5,146.5C 38.1485,149.073 38.6485,151.406 40,153.5C 40.414,153.043 40.914,152.709 41.5,152.5C 45.4806,155.535 49.8139,157.535 54.5,158.5C 51.2856,159.282 47.9523,160.115 44.5,161C 46.9252,162.213 49.2585,163.379 51.5,164.5C 50.1667,164.5 48.8333,164.5 47.5,164.5C 39.8242,159.995 31.8242,155.995 23.5,152.5C 22.0692,150.062 20.0692,148.396 17.5,147.5C 15.4358,144.456 13.4358,141.456 11.5,138.5C 11.4641,133.07 10.7974,127.737 9.5,122.5C 9.5,119.833 9.5,117.167 9.5,114.5 Z"/></g>
<g><path style="opacity:1" fill="#a8793c" d="M 38.5,146.5 C 41.0016,148.17 43.0016,150.336 44.5,153C 45.745,153.791 47.0783,154.291 48.5,154.5C 50.0261,156.13 52.0261,156.963 54.5,157C 61.4921,157.5 68.4921,157.666 75.5,157.5C 68.6866,158.491 61.6866,158.825 54.5,158.5C 49.8139,157.535 45.4806,155.535 41.5,152.5C 40.914,152.709 40.414,153.043 40,153.5C 38.6485,151.406 38.1485,149.073 38.5,146.5 Z"/></g>
<g><path style="opacity:1" fill="#a4793b" d="M 17.5,147.5 C 20.0692,148.396 22.0692,150.062 23.5,152.5C 31.8242,155.995 39.8242,159.995 47.5,164.5C 38.3793,162.849 30.046,159.349 22.5,154C 20.4611,152.074 18.7945,149.907 17.5,147.5 Z"/></g>
<g><path style="opacity:1" fill="#659a76" d="M 75.5,150.5 C 76.4345,151.568 76.7678,152.901 76.5,154.5C 74.5,154.5 72.5,154.5 70.5,154.5C 71.9187,153.549 73.5853,153.216 75.5,153.5C 75.5,152.5 75.5,151.5 75.5,150.5 Z"/></g>
<g><path style="opacity:1" fill="#e8cfab" d="M 48.5,154.5 C 50.7638,155.219 53.0971,155.552 55.5,155.5C 61.979,156.491 68.6457,156.824 75.5,156.5C 75.5,156.833 75.5,157.167 75.5,157.5C 68.4921,157.666 61.4921,157.5 54.5,157C 52.0261,156.963 50.0261,156.13 48.5,154.5 Z"/></g>
<g><path style="opacity:1" fill="#cfead7" d="M 214.5,127.5 C 214.492,137.013 212.158,145.846 207.5,154C 207.833,154.333 208.167,154.667 208.5,155C 207.552,155.483 206.552,155.649 205.5,155.5C 205.167,160.482 202.833,164.149 198.5,166.5C 202.364,160.105 205.698,153.438 208.5,146.5C 210.585,144.316 211.585,141.649 211.5,138.5C 211.882,134.554 212.882,130.888 214.5,127.5 Z"/></g>
<g><path style="opacity:1" fill="#af7321" d="M 123.5,155.5 C 113.416,160.187 102.749,163.187 91.5,164.5C 78.16,165.723 64.8267,165.723 51.5,164.5C 49.2585,163.379 46.9252,162.213 44.5,161C 47.9523,160.115 51.2856,159.282 54.5,158.5C 61.6866,158.825 68.6866,158.491 75.5,157.5C 75.5,157.167 75.5,156.833 75.5,156.5C 87.2295,155.401 98.5628,152.734 109.5,148.5C 112.119,148.768 114.619,148.435 117,147.5C 118.827,149.24 118.66,150.907 116.5,152.5C 114.345,152.162 112.011,152.162 109.5,152.5C 109.64,154.124 108.973,155.29 107.5,156C 108.5,156.333 109.5,156.667 110.5,157C 114.86,156.998 119.193,156.498 123.5,155.5 Z"/></g>
<g><path style="opacity:1" fill="#aa7737" d="M 47.5,164.5 C 48.8333,164.5 50.1667,164.5 51.5,164.5C 64.8267,165.723 78.16,165.723 91.5,164.5C 89.1891,166.068 86.5224,166.902 83.5,167C 75.5069,167.5 67.5069,167.666 59.5,167.5C 55.4295,166.823 51.4295,165.823 47.5,164.5 Z"/></g>
<g><path style="opacity:1" fill="#077228" d="M 194.5,109.5 C 194.291,110.922 193.791,112.255 193,113.5C 190.739,114.682 188.905,116.349 187.5,118.5C 187.709,119.086 188.043,119.586 188.5,120C 185.68,123.292 184.347,127.125 184.5,131.5C 180.788,131.877 177.788,133.544 175.5,136.5C 172.79,138.253 172.123,140.586 173.5,143.5C 172.369,144.604 171.535,144.271 171,142.5C 169.167,144 167.333,145.5 165.5,147C 166.337,148.011 166.67,149.178 166.5,150.5C 164.097,151.888 161.763,152.721 159.5,153C 161.5,154 163.5,155 165.5,156C 164.484,156.519 163.818,157.353 163.5,158.5C 165.973,160.425 165.973,162.258 163.5,164C 167.824,163.716 171.824,163.216 175.5,162.5C 176.833,162.167 178.167,161.833 179.5,161.5C 181.484,160.844 183.484,160.178 185.5,159.5C 186.672,159.919 187.672,160.585 188.5,161.5C 189.244,160.009 189.91,158.509 190.5,157C 193.658,155.336 196.991,154.169 200.5,153.5C 201.086,153.709 201.586,154.043 202,154.5C 204.284,148.736 207.117,143.402 210.5,138.5C 209.629,141.112 208.963,143.779 208.5,146.5C 205.698,153.438 202.364,160.105 198.5,166.5C 195.968,170.211 192.968,173.544 189.5,176.5C 185.999,178.342 182.332,180.009 178.5,181.5C 174.846,180.1 174.512,178.1 177.5,175.5C 175.937,173.015 174.27,171.349 172.5,170.5C 176.375,169.514 176.375,168.347 172.5,167C 174.595,166.444 174.762,165.944 173,165.5C 169.979,166.856 166.979,167.19 164,166.5C 155.211,169.746 146.378,172.412 137.5,174.5C 136.778,174.082 136.278,173.416 136,172.5C 134.301,173.406 132.467,173.739 130.5,173.5C 130.579,172.07 130.246,170.736 129.5,169.5C 137.555,164.477 145.222,159.644 152.5,155C 157.295,148.038 162.962,141.871 169.5,136.5C 170.429,135.311 170.762,133.978 170.5,132.5C 174.215,128.119 178.215,124.119 182.5,120.5C 186.73,116.986 190.73,113.32 194.5,109.5 Z"/></g>
<g><path style="opacity:1" fill="#f7eedb" d="M 137.5,149.5 C 134.81,151.972 131.81,154.138 128.5,156C 129.34,157.666 128.84,157.833 127,156.5C 119.573,159.995 111.74,162.495 103.5,164C 93.0557,168.091 82.0557,169.925 70.5,169.5C 66.6125,169.354 62.9458,168.687 59.5,167.5C 67.5069,167.666 75.5069,167.5 83.5,167C 86.5224,166.902 89.1891,166.068 91.5,164.5C 102.749,163.187 113.416,160.187 123.5,155.5C 125.086,154.852 126.753,154.352 128.5,154C 130.979,151.33 133.979,149.83 137.5,149.5 Z"/></g>
<g><path style="opacity:1" fill="#0a3b23" d="M 37.5,167.5 C 44.377,170.717 51.7103,172.384 59.5,172.5C 61.9479,173.473 64.6146,173.806 67.5,173.5C 66.4324,174.434 65.099,174.768 63.5,174.5C 58.1556,174.816 52.8222,175.316 47.5,176C 47.0426,176.414 46.7093,176.914 46.5,177.5C 49.0338,177.566 51.5338,177.566 54,177.5C 54.3173,179.301 54.984,179.634 56,178.5C 57.2783,183.458 55.445,186.291 50.5,187C 52.3695,188.501 54.2028,190.001 56,191.5C 56.2492,190.376 56.7492,189.376 57.5,188.5C 57.1896,190.201 57.6896,191.868 59,193.5C 59.2189,192.062 59.7189,190.729 60.5,189.5C 61.6446,190.776 61.6446,192.109 60.5,193.5C 61.7287,194.281 63.062,194.781 64.5,195C 62.203,196.16 62.5363,197.16 65.5,198C 64.2068,198.49 62.8734,198.657 61.5,198.5C 45.1669,190.004 32.1669,177.837 22.5,162C 23,161.833 23.5,161.667 24,161.5C 28.4931,163.666 32.9931,165.666 37.5,167.5 Z"/></g>
<g><path style="opacity:1" fill="#608f74" d="M 110.5,166.5 C 110.389,167.117 110.056,167.617 109.5,168C 105.218,169.157 100.884,169.99 96.5,170.5C 100.953,168.801 105.62,167.467 110.5,166.5 Z"/></g>
<g><path style="opacity:1" fill="#025f24" d="M 170.5,132.5 C 170.762,133.978 170.429,135.311 169.5,136.5C 162.962,141.871 157.295,148.038 152.5,155C 145.222,159.644 137.555,164.477 129.5,169.5C 130.246,170.736 130.579,172.07 130.5,173.5C 132.467,173.739 134.301,173.406 136,172.5C 136.278,173.416 136.778,174.082 137.5,174.5C 142.95,174.138 148.283,173.138 153.5,171.5C 154.308,171.808 154.975,172.308 155.5,173C 155.034,174.299 155.034,175.799 155.5,177.5C 151.425,177.399 148.925,179.399 148,183.5C 147.667,182.833 147.333,182.167 147,181.5C 144.707,183.372 142.207,184.872 139.5,186C 141.891,186.287 144.224,186.787 146.5,187.5C 147.167,186.5 147.833,185.5 148.5,184.5C 150.316,187.064 152.149,187.064 154,184.5C 154.717,185.044 155.217,185.711 155.5,186.5C 155.953,187.458 156.619,188.292 157.5,189C 154.242,188.922 150.908,188.756 147.5,188.5C 141.465,189.132 135.965,189.798 131,190.5C 128.888,188.078 126.888,188.078 125,190.5C 122.855,188.105 123.022,185.938 125.5,184C 125.167,183.667 124.833,183.333 124.5,183C 127.322,183.768 130.322,184.435 133.5,185C 132.112,185.889 132.278,186.389 134,186.5C 139.69,183.488 144.524,180.322 148.5,177C 146.559,176.257 144.726,176.424 143,177.5C 142.612,176.572 141.945,175.905 141,175.5C 138.146,176.114 135.313,176.781 132.5,177.5C 124.751,176.383 117.585,176.383 111,177.5C 109.601,176.773 108.101,176.273 106.5,176C 113.191,174.487 119.191,171.653 124.5,167.5C 121.203,166.858 120.869,165.691 123.5,164C 130.729,162.729 137.729,160.395 144.5,157C 146.891,155.691 146.891,154.691 144.5,154C 146.699,152.303 149.032,150.803 151.5,149.5C 152.386,148.675 152.719,147.675 152.5,146.5C 158.19,141.482 164.19,136.815 170.5,132.5 Z"/></g>
<g><path style="opacity:1" fill="#006625" d="M 189.5,176.5 C 188.54,178.461 187.207,180.127 185.5,181.5C 185.44,180.957 185.107,180.624 184.5,180.5C 180.822,184.083 176.822,185.083 172.5,183.5C 171.614,184.325 171.281,185.325 171.5,186.5C 166.167,186.5 160.833,186.5 155.5,186.5C 155.217,185.711 154.717,185.044 154,184.5C 152.149,187.064 150.316,187.064 148.5,184.5C 147.833,185.5 147.167,186.5 146.5,187.5C 144.224,186.787 141.891,186.287 139.5,186C 142.207,184.872 144.707,183.372 147,181.5C 147.333,182.167 147.667,182.833 148,183.5C 148.925,179.399 151.425,177.399 155.5,177.5C 155.034,175.799 155.034,174.299 155.5,173C 154.975,172.308 154.308,171.808 153.5,171.5C 148.283,173.138 142.95,174.138 137.5,174.5C 146.378,172.412 155.211,169.746 164,166.5C 166.979,167.19 169.979,166.856 173,165.5C 174.762,165.944 174.595,166.444 172.5,167C 176.375,168.347 176.375,169.514 172.5,170.5C 174.27,171.349 175.937,173.015 177.5,175.5C 174.512,178.1 174.846,180.1 178.5,181.5C 182.332,180.009 185.999,178.342 189.5,176.5 Z"/></g>
<g><path style="opacity:1" fill="#013d1f" d="M 63.5,174.5 C 59.2583,177.219 59.5917,177.885 64.5,176.5C 67.0283,177.746 69.6949,178.746 72.5,179.5C 71.1502,180.95 69.4835,181.617 67.5,181.5C 67.3505,182.552 67.5172,183.552 68,184.5C 70.176,184.572 72.176,184.238 74,183.5C 77.6667,184.26 78.1667,185.76 75.5,188C 81.2668,191.103 84.1001,195.936 84,202.5C 85.6667,203.833 87.3333,203.833 89,202.5C 89.6622,203.984 90.4955,205.317 91.5,206.5C 83.7879,204.653 76.1213,202.986 68.5,201.5C 65.904,200.945 63.5707,199.945 61.5,198.5C 62.8734,198.657 64.2068,198.49 65.5,198C 62.5363,197.16 62.203,196.16 64.5,195C 63.062,194.781 61.7287,194.281 60.5,193.5C 61.6446,192.109 61.6446,190.776 60.5,189.5C 59.7189,190.729 59.2189,192.062 59,193.5C 57.6896,191.868 57.1896,190.201 57.5,188.5C 56.7492,189.376 56.2492,190.376 56,191.5C 54.2028,190.001 52.3695,188.501 50.5,187C 55.445,186.291 57.2783,183.458 56,178.5C 54.984,179.634 54.3173,179.301 54,177.5C 51.5338,177.566 49.0338,177.566 46.5,177.5C 46.7093,176.914 47.0426,176.414 47.5,176C 52.8222,175.316 58.1556,174.816 63.5,174.5 Z"/></g>
<g><path style="opacity:1" fill="#00431e" d="M 67.5,173.5 C 73.5823,173.143 78.249,173.476 81.5,174.5C 77.4908,174.858 73.4908,175.358 69.5,176C 74.4309,176.958 79.0975,178.791 83.5,181.5C 84.3567,182.736 85.0234,184.069 85.5,185.5C 89.1224,186.325 92.789,186.825 96.5,187C 98.4013,190.728 101.401,193.228 105.5,194.5C 106.672,194.081 107.672,193.415 108.5,192.5C 110.059,193.447 111.726,194.113 113.5,194.5C 122.629,194.241 130.796,194.241 138,194.5C 141.543,199.55 146.376,202.217 152.5,202.5C 148.424,204.612 144.091,206.279 139.5,207.5C 138.5,207.5 137.5,207.5 136.5,207.5C 135.903,206.861 135.07,206.528 134,206.5C 127.404,208.113 120.738,209.113 114,209.5C 110.397,209.45 107.064,208.783 104,207.5C 100.857,208.391 97.3573,208.557 93.5,208C 92.5842,207.722 91.9175,207.222 91.5,206.5C 90.4955,205.317 89.6622,203.984 89,202.5C 87.3333,203.833 85.6667,203.833 84,202.5C 84.1001,195.936 81.2668,191.103 75.5,188C 78.1667,185.76 77.6667,184.26 74,183.5C 72.176,184.238 70.176,184.572 68,184.5C 67.5172,183.552 67.3505,182.552 67.5,181.5C 69.4835,181.617 71.1502,180.95 72.5,179.5C 69.6949,178.746 67.0283,177.746 64.5,176.5C 59.5917,177.885 59.2583,177.219 63.5,174.5C 65.099,174.768 66.4324,174.434 67.5,173.5 Z"/></g>
<g><path style="opacity:1" fill="#085525" d="M 152.5,146.5 C 152.719,147.675 152.386,148.675 151.5,149.5C 149.032,150.803 146.699,152.303 144.5,154C 146.891,154.691 146.891,155.691 144.5,157C 137.729,160.395 130.729,162.729 123.5,164C 120.869,165.691 121.203,166.858 124.5,167.5C 119.191,171.653 113.191,174.487 106.5,176C 108.101,176.273 109.601,176.773 111,177.5C 117.585,176.383 124.751,176.383 132.5,177.5C 135.313,176.781 138.146,176.114 141,175.5C 141.945,175.905 142.612,176.572 143,177.5C 144.726,176.424 146.559,176.257 148.5,177C 144.524,180.322 139.69,183.488 134,186.5C 132.278,186.389 132.112,185.889 133.5,185C 130.322,184.435 127.322,183.768 124.5,183C 124.833,183.333 125.167,183.667 125.5,184C 123.022,185.938 122.855,188.105 125,190.5C 126.888,188.078 128.888,188.078 131,190.5C 135.965,189.798 141.465,189.132 147.5,188.5C 150.908,188.756 154.242,188.922 157.5,189C 156.619,188.292 155.953,187.458 155.5,186.5C 160.833,186.5 166.167,186.5 171.5,186.5C 171.281,185.325 171.614,184.325 172.5,183.5C 176.822,185.083 180.822,184.083 184.5,180.5C 185.107,180.624 185.44,180.957 185.5,181.5C 184.084,183.179 182.75,184.846 181.5,186.5C 179.938,186.733 178.605,187.4 177.5,188.5C 174.427,190.138 171.594,189.805 169,187.5C 168.085,188.328 167.419,189.328 167,190.5C 165.165,189.881 162.999,189.714 160.5,190C 159.405,191.675 157.905,192.842 156,193.5C 148.632,191.675 141.132,191.175 133.5,192C 136.063,192.763 136.063,193.263 133.5,193.5C 125.479,192.691 117.812,191.525 110.5,190C 109.643,189.311 108.977,188.478 108.5,187.5C 108.846,186.304 109.346,186.304 110,187.5C 110.483,186.552 110.649,185.552 110.5,184.5C 109.5,184.5 108.5,184.5 107.5,184.5C 107.5,182.833 107.5,181.167 107.5,179.5C 100.445,179.73 93.4453,179.23 86.5,178C 86.9574,177.586 87.2907,177.086 87.5,176.5C 85.8647,175.319 84.198,175.319 82.5,176.5C 81.7025,176.043 81.3691,175.376 81.5,174.5C 78.249,173.476 73.5823,173.143 67.5,173.5C 64.6146,173.806 61.9479,173.473 59.5,172.5C 71.9142,172.917 84.2475,172.25 96.5,170.5C 100.884,169.99 105.218,169.157 109.5,168C 110.056,167.617 110.389,167.117 110.5,166.5C 125.3,161.433 139.3,154.766 152.5,146.5 Z"/></g>
<g><path style="opacity:1" fill="#014b20" d="M 81.5,174.5 C 81.3691,175.376 81.7025,176.043 82.5,176.5C 84.198,175.319 85.8647,175.319 87.5,176.5C 87.2907,177.086 86.9574,177.586 86.5,178C 93.4453,179.23 100.445,179.73 107.5,179.5C 107.5,181.167 107.5,182.833 107.5,184.5C 108.5,184.5 109.5,184.5 110.5,184.5C 110.649,185.552 110.483,186.552 110,187.5C 109.346,186.304 108.846,186.304 108.5,187.5C 108.977,188.478 109.643,189.311 110.5,190C 117.812,191.525 125.479,192.691 133.5,193.5C 136.063,193.263 136.063,192.763 133.5,192C 141.132,191.175 148.632,191.675 156,193.5C 157.905,192.842 159.405,191.675 160.5,190C 162.999,189.714 165.165,189.881 167,190.5C 167.419,189.328 168.085,188.328 169,187.5C 171.594,189.805 174.427,190.138 177.5,188.5C 173.5,191.5 169.5,194.5 165.5,197.5C 161.267,199.451 156.934,201.117 152.5,202.5C 146.376,202.217 141.543,199.55 138,194.5C 130.796,194.241 122.629,194.241 113.5,194.5C 111.726,194.113 110.059,193.447 108.5,192.5C 107.672,193.415 106.672,194.081 105.5,194.5C 101.401,193.228 98.4013,190.728 96.5,187C 92.789,186.825 89.1224,186.325 85.5,185.5C 85.0234,184.069 84.3567,182.736 83.5,181.5C 79.0975,178.791 74.4309,176.958 69.5,176C 73.4908,175.358 77.4908,174.858 81.5,174.5 Z"/></g>
<g><path style="opacity:1" fill="#cfe5d8" d="M 181.5,186.5 C 180.162,188.67 178.328,190.336 176,191.5C 175.517,192.448 175.351,193.448 175.5,194.5C 172.316,195.799 168.983,196.799 165.5,197.5C 169.5,194.5 173.5,191.5 177.5,188.5C 178.605,187.4 179.938,186.733 181.5,186.5 Z"/></g>
<g><path style="opacity:1" fill="#1d4931" d="M 68.5,201.5 C 76.1213,202.986 83.7879,204.653 91.5,206.5C 91.9175,207.222 92.5842,207.722 93.5,208C 97.3573,208.557 100.857,208.391 104,207.5C 107.064,208.783 110.397,209.45 114,209.5C 120.738,209.113 127.404,208.113 134,206.5C 135.07,206.528 135.903,206.861 136.5,207.5C 134.597,207.796 132.93,208.463 131.5,209.5C 113.585,211.597 95.9188,210.43 78.5,206C 75.0889,204.407 71.7556,202.907 68.5,201.5 Z"/></g>
<g><path style="opacity:1" fill="#81a491" d="M 136.5,207.5 C 137.5,207.5 138.5,207.5 139.5,207.5C 137.095,208.768 134.428,209.435 131.5,209.5C 132.93,208.463 134.597,207.796 136.5,207.5 Z"/></g>
</svg>
