<svg version="1.1" id="Layer_1" xmlns="http://www.w3.org/2000/svg" xmlns:xlink="http://www.w3.org/1999/xlink" x="0px" y="0px"
	 width="100%" viewBox="0 0 1024 672" enable-background="new 0 0 1024 672" xml:space="preserve">
<path fill="#000000" opacity="1.000000" stroke="none" 
	d="
M326.469360,338.284546 
	C312.479523,373.575653 284.327820,392.392181 246.422241,391.977997 
	C213.728699,391.620819 185.865280,373.345764 175.867691,351.672424 
	C177.907593,350.428009 179.350876,352.129669 180.777847,352.874390 
	C196.722839,361.195923 213.784515,362.631409 230.911682,359.189941 
	C272.263733,350.880920 302.999969,327.828857 322.810150,290.435516 
	C323.634735,288.878998 324.045319,286.917114 327.025360,285.969940 
	C332.885437,303.444946 332.566559,320.652039 326.469360,338.284546 
z"/>
<path fill="#000000" opacity="1.000000" stroke="none" 
	d="
M268.263947,238.822571 
	C238.316269,236.377136 212.654999,244.345795 193.138535,267.519318 
	C176.922653,286.773773 174.874741,317.379456 187.901642,337.160950 
	C192.495834,344.137299 198.565628,347.891998 207.398682,347.968109 
	C234.488434,348.201416 257.243561,338.210968 277.126038,320.335968 
	C292.330200,306.666931 303.192413,290.206177 310.373291,271.186707 
	C312.447723,265.692383 311.956635,264.901154 306.172058,264.237610 
	C304.205078,264.011932 302.163727,264.108704 299.898834,262.391510 
	C302.525970,259.083923 306.242737,257.215302 309.448578,254.892319 
	C315.108795,250.790894 321.058716,247.090271 326.869110,243.194611 
	C329.063202,241.723541 330.965210,241.446671 331.827454,244.507507 
	C334.670471,254.600159 337.443176,264.712677 340.217255,274.824585 
	C340.433258,275.611847 340.539368,276.470703 339.564270,277.320221 
	C335.589020,276.561646 332.965637,272.620758 328.454132,271.730621 
	C325.576050,277.763733 322.883179,283.827667 319.841187,289.711090 
	C308.198669,312.228546 291.144684,329.603638 269.184662,342.133972 
	C251.644531,352.142395 232.853073,357.726044 212.489059,357.373383 
	C201.658295,357.185822 191.429779,354.582367 181.643265,350.009857 
	C169.198822,344.195557 166.318497,332.847748 164.730560,320.812134 
	C159.568268,281.685242 185.285934,248.361923 217.158112,236.907822 
	C241.088455,228.307816 264.508881,229.313934 287.464478,240.285126 
	C288.871643,240.957626 290.772339,241.113022 291.431396,243.902161 
	C283.567078,242.382080 276.443146,239.021820 268.263947,238.822571 
z"/>
<path fill="#000000" opacity="1.000000" stroke="none" 
	d="
M513.407104,297.744690 
	C517.013367,297.622589 520.213074,297.278534 523.301880,298.129608 
	C526.172668,298.920685 526.947510,297.466461 526.971436,295.079895 
	C527.013245,290.915314 527.086060,286.746460 526.945312,282.586182 
	C526.835999,279.354492 528.024963,277.730499 531.397644,277.324524 
	C544.997437,275.687378 543.085388,274.867188 543.140686,287.242554 
	C543.216736,304.238434 543.192078,321.235535 543.043701,338.230682 
	C543.020081,340.936188 544.631104,345.167816 540.373962,345.709106 
	C536.129333,346.248840 531.007690,348.150665 527.768066,342.924286 
	C526.132019,342.667694 524.971497,343.795288 523.700134,344.480682 
	C513.077332,350.207428 500.311707,346.220764 495.629272,335.075653 
	C489.045990,319.406158 494.972839,301.589539 513.407104,297.744690 
M509.671234,325.732574 
	C510.353760,327.774292 510.792969,329.941864 511.769958,331.831299 
	C513.743347,335.647736 516.951965,337.148376 521.281494,336.282288 
	C525.616028,335.415192 527.315735,332.947815 527.054810,328.529602 
	C526.761963,323.569855 526.983093,318.580963 526.932739,313.605255 
	C526.877502,308.136047 525.059998,306.476837 519.669556,307.055298 
	C515.251343,307.529480 512.365112,310.075867 510.968475,314.187531 
	C509.793457,317.646606 508.967529,321.209412 509.671234,325.732574 
z"/>
<path fill="#000000" opacity="1.000000" stroke="none" 
	d="
M347.745056,312.919067 
	C347.627167,286.368988 367.037842,272.449249 392.894073,275.042450 
	C397.017731,275.456024 401.129730,276.111053 405.105774,277.498352 
	C411.007263,279.557495 407.443451,283.362701 406.862976,286.541901 
	C406.242188,289.942139 404.176727,290.136353 401.309143,288.902649 
	C397.941437,287.453796 394.380219,286.579315 390.692200,286.264954 
	C371.321991,284.613647 365.254913,299.637482 365.823792,312.686066 
	C366.386108,325.584564 372.760468,333.341888 382.543915,335.400635 
	C389.259369,336.813843 395.777100,335.340118 402.165955,333.168976 
	C404.045746,332.530151 406.621918,330.601807 407.448395,334.013214 
	C408.173218,337.005066 410.191071,341.168182 406.312073,343.034668 
	C391.610901,350.108490 363.099915,350.949310 352.018677,329.682037 
	C349.367950,324.594757 347.943787,319.138519 347.745056,312.919067 
z"/>
<path fill="#000000" opacity="1.000000" stroke="none" 
	d="
M612.395752,345.487671 
	C598.969849,347.072083 598.955017,347.072144 598.915405,334.542419 
	C598.884338,324.712921 599.101929,314.876953 598.798096,305.056580 
	C598.654724,300.421661 600.427246,298.612030 604.846863,298.830261 
	C606.004211,298.887390 607.204163,298.845398 608.331726,298.603302 
	C611.835938,297.850769 614.422607,298.413574 614.280151,303.450134 
	C619.840149,299.762329 624.925842,297.241241 631.094849,297.612244 
	C639.092163,298.093231 644.854126,302.267853 645.299011,310.189026 
	C645.913452,321.130035 645.373230,332.136200 645.314697,343.114380 
	C645.304871,344.954987 644.247620,345.867126 642.491089,345.903320 
	C639.494568,345.965118 636.493958,346.011169 633.499084,345.924927 
	C630.718140,345.844818 630.572571,343.852081 630.540955,341.684021 
	C630.426819,333.864136 630.236145,326.045288 630.053040,318.226562 
	C629.897400,311.576996 628.099243,309.199890 623.375854,309.329285 
	C617.620178,309.486938 614.441101,312.817413 614.385132,318.896179 
	C614.319153,326.059601 614.371033,333.224121 614.302856,340.387512 
	C614.286133,342.139465 614.838989,344.143311 612.395752,345.487671 
z"/>
<path fill="#000000" opacity="1.000000" stroke="none" 
	d="
M213.415466,304.428223 
	C213.768143,306.229065 214.086853,307.645569 214.454514,309.279572 
	C216.338699,306.671448 217.027222,304.238647 216.176193,301.178833 
	C211.467331,284.248444 224.896317,272.787262 240.920822,271.018768 
	C243.376175,270.747803 244.220337,271.911591 243.786545,274.323853 
	C243.021637,278.577393 242.399185,282.856384 241.692261,287.120575 
	C240.101105,296.718567 234.300980,302.682648 225.146408,305.095093 
	C220.937119,306.204376 219.174667,308.443604 218.392441,312.453552 
	C216.481003,322.252106 216.168350,331.964508 219.142868,341.597382 
	C219.981216,344.312317 220.310501,346.472412 216.606140,347.115295 
	C213.306503,347.687927 212.193939,346.165161 211.693253,343.159821 
	C210.416794,335.497772 210.562225,327.866333 212.070770,320.302521 
	C212.684250,317.226471 212.151413,315.786255 208.903397,314.952393 
	C191.920578,310.592407 188.833405,301.817566 187.552582,285.596802 
	C199.299667,281.989227 212.129318,291.152191 213.415466,304.428223 
z"/>
<path fill="#000000" opacity="1.000000" stroke="none" 
	d="
M738.932861,314.604980 
	C739.646057,323.834656 739.318604,324.185272 730.710266,324.179962 
	C725.219788,324.176575 719.728638,324.269012 714.239136,324.204163 
	C710.031433,324.154419 709.364258,326.286133 710.726929,329.661865 
	C712.261292,333.462769 715.479553,335.105682 719.260925,335.723572 
	C723.446594,336.407562 727.533997,335.761078 731.555176,334.453552 
	C733.272705,333.895050 735.645508,331.927032 736.614014,334.817627 
	C737.512573,337.499298 738.315002,340.765930 735.394714,343.094482 
	C727.295471,349.552521 708.697815,348.256744 700.767517,340.720276 
	C692.337341,332.708740 690.839417,317.566956 697.494934,307.640442 
	C703.767029,298.285797 717.638123,294.854980 728.281372,299.870636 
	C734.443909,302.774719 737.238770,308.002350 738.932861,314.604980 
M710.628479,314.332581 
	C713.969727,317.185822 717.927368,315.557770 721.601257,315.728424 
	C724.821350,315.877991 725.113647,313.815582 723.967651,311.365082 
	C722.621643,308.486816 720.212830,307.117706 717.110535,307.350342 
	C713.312378,307.635162 711.051880,309.792175 710.628479,314.332581 
z"/>
<path fill="#000000" opacity="1.000000" stroke="none" 
	d="
M481.439087,300.276154 
	C488.261719,304.589508 490.775360,310.805420 491.256927,318.180969 
	C491.528687,322.343536 490.060608,324.367828 485.597504,324.232361 
	C478.943726,324.030396 472.277893,324.128693 465.619049,324.227173 
	C461.238708,324.291962 460.565430,325.460358 462.356659,329.364563 
	C464.753448,334.588806 469.872437,336.748871 477.735992,335.713654 
	C479.534821,335.476868 481.267853,334.774048 483.060883,334.450256 
	C484.958405,334.107574 487.495117,331.660461 488.614532,334.747528 
	C489.631317,337.551544 490.366791,341.024750 487.035889,343.336609 
	C477.998413,349.609070 460.449554,348.125427 452.445068,340.429535 
	C443.899780,332.213684 442.615753,318.110962 449.477539,307.837036 
	C455.992493,298.082397 469.078094,294.876434 481.439087,300.276154 
M471.295502,315.853394 
	C473.307404,315.431396 476.466431,316.961182 476.606049,313.228333 
	C476.717102,310.258667 474.916626,308.307373 472.077606,307.460724 
	C466.974182,305.938812 462.681458,309.256653 462.160583,315.183868 
	C464.816254,316.351013 467.650421,315.665894 471.295502,315.853394 
z"/>
<path fill="#000000" opacity="1.000000" stroke="none" 
	d="
M758.944031,347.197449 
	C753.725769,347.372864 749.307007,346.075043 744.912231,344.350525 
	C739.417725,342.194366 741.976929,338.511841 743.061035,335.257263 
	C744.401978,331.231476 746.956970,333.404480 749.022644,334.519165 
	C752.978638,336.653839 757.141296,337.427368 761.568481,336.908142 
	C763.356689,336.698395 764.811584,335.939331 765.138367,333.990631 
	C765.445435,332.158844 764.116150,331.173828 762.759949,330.572601 
	C759.720398,329.225250 756.603271,328.044830 753.484558,326.885773 
	C745.429993,323.892334 741.333496,318.814819 741.937866,312.480042 
	C742.654419,304.969879 748.185059,299.150940 756.258179,297.955597 
	C762.063049,297.096161 767.808533,297.488220 773.509094,299.407837 
	C777.846069,300.868225 777.525879,303.380981 776.429199,306.791565 
	C775.269104,310.399506 773.276489,310.424652 770.328247,308.995453 
	C767.774597,307.757446 764.988098,307.099060 762.097168,307.238098 
	C760.080261,307.335052 757.854126,307.382416 757.282104,309.862061 
	C756.687378,312.440125 758.691528,313.335541 760.621277,314.060791 
	C763.269409,315.056091 765.955383,315.950409 768.607910,316.934479 
	C776.325928,319.798035 779.490601,323.833130 779.445862,330.700287 
	C779.400940,337.599304 775.317200,343.012390 768.191772,345.578949 
	C765.353882,346.601135 762.446716,347.288605 758.944031,347.197449 
z"/>
<path fill="#000000" opacity="1.000000" stroke="none" 
	d="
M681.119690,302.112183 
	C684.568604,296.169037 689.332336,299.540039 693.807251,299.015961 
	C693.828186,303.498138 692.026550,306.750061 690.752625,310.081299 
	C686.774231,320.484436 682.247498,330.690887 678.621643,341.210876 
	C676.573792,347.152466 672.287292,345.798401 668.136597,346.047180 
	C664.353394,346.273956 662.697205,344.650696 661.438599,341.013367 
	C657.363159,329.235107 652.813660,317.619049 648.350037,305.977570 
	C645.857727,299.477173 646.260193,298.712067 653.003723,298.745270 
	C664.412170,298.801422 662.408875,297.815674 665.623962,307.771729 
	C667.550537,313.737671 669.709900,319.628418 672.995300,325.665680 
	C675.655945,317.940887 678.316589,310.216095 681.119690,302.112183 
z"/>
<path fill="#000000" opacity="1.000000" stroke="none" 
	d="
M802.837097,310.011108 
	C802.551636,316.717865 802.320496,323.037872 802.361755,329.356140 
	C802.396973,334.738922 804.875427,336.701263 810.333801,336.129181 
	C812.551819,335.896729 815.238037,334.775238 815.883484,338.327728 
	C816.436829,341.373383 815.829285,343.972046 812.515808,345.222687 
	C806.886597,347.347473 801.200562,347.903961 795.425110,345.886963 
	C790.674683,344.227997 788.312866,340.655579 787.547607,335.850067 
	C786.361084,328.399841 787.235596,320.891327 786.922180,313.415894 
	C786.815002,310.861359 786.967468,308.265747 783.337341,308.010651 
	C781.521973,307.883118 779.995361,307.091980 780.242371,304.920929 
	C780.483276,302.802582 780.475952,299.974548 782.922791,299.472931 
	C786.884338,298.660797 787.632812,295.998230 787.390747,292.913879 
	C787.081482,288.973267 788.907349,287.455078 792.456482,287.147675 
	C793.280762,287.076233 794.092163,286.842834 794.906372,286.669342 
	C802.216492,285.111664 802.521362,285.122131 802.248047,292.435974 
	C802.054688,297.610809 804.019653,299.302277 808.946594,298.836761 
	C811.030396,298.639862 814.204407,298.093445 813.772583,301.923737 
	C813.451599,304.771210 813.519287,308.194489 808.997009,308.093231 
	C806.933472,308.046997 804.578918,307.479431 802.837097,310.011108 
z"/>
<path fill="#000000" opacity="1.000000" stroke="none" 
	d="
M593.428223,290.148956 
	C593.906738,306.913452 594.137756,323.223572 593.633850,339.550415 
	C593.485229,344.367584 592.317688,346.327332 587.097290,346.111176 
	C577.728271,345.723297 577.705750,346.033417 577.700806,336.888367 
	C577.690857,318.392059 577.796814,299.894684 577.612000,281.400177 
	C577.568787,277.078033 578.933716,275.549957 583.328918,275.572906 
	C594.674683,275.632111 594.673218,275.459259 593.623779,286.708801 
	C593.531067,287.703094 593.495117,288.702728 593.428223,290.148956 
z"/>
<path fill="#000000" opacity="1.000000" stroke="none" 
	d="
M272.898621,276.020142 
	C272.856750,263.711243 272.856750,263.711212 284.859161,263.652588 
	C297.209137,263.592285 297.209534,263.592316 297.254852,275.811157 
	C297.259186,276.976562 297.119171,278.160370 297.274048,279.304749 
	C299.764069,297.700043 286.298431,307.275177 275.661255,318.401276 
	C275.394318,318.680481 274.739685,318.588959 272.901917,318.904541 
	C272.901917,304.588196 272.901917,290.552002 272.898621,276.020142 
z"/>
<path fill="#000000" opacity="1.000000" stroke="none" 
	d="
M411.723083,307.087219 
	C412.076324,304.234528 410.485992,300.868195 413.093109,299.709930 
	C416.841217,298.044739 421.245544,297.920868 425.282440,298.574158 
	C427.823639,298.985413 426.730988,302.276459 427.543793,304.275299 
	C429.506622,303.813538 430.320648,301.997040 431.606384,300.805603 
	C434.685638,297.952148 438.277954,297.156525 442.242554,297.932587 
	C444.788391,298.430969 446.554138,299.713531 445.741699,302.805969 
	C445.278046,304.570801 444.917542,306.370789 444.641113,308.174927 
	C444.132324,311.495667 442.764740,312.415649 439.182861,311.560760 
	C431.840881,309.808319 427.395355,313.686768 427.337189,321.246521 
	C427.286011,327.898865 427.204559,334.554016 427.346222,341.203461 
	C427.419067,344.623962 425.997467,345.872162 422.655243,346.049835 
	C411.744415,346.629761 411.749939,346.716675 411.744263,336.013367 
	C411.739197,326.533264 411.731781,317.053131 411.723083,307.087219 
z"/>
<path fill="#000000" opacity="1.000000" stroke="none" 
	d="
M247.655884,316.000000 
	C247.615295,308.670349 247.746643,301.833557 247.468185,295.013489 
	C247.319794,291.378815 248.463867,289.736511 252.211349,289.860687 
	C256.870850,290.015045 261.538635,289.953033 266.202545,289.928009 
	C269.089142,289.912537 270.411285,291.174469 270.393707,294.156464 
	C270.341705,302.980103 270.429565,311.804565 270.462219,320.628723 
	C270.466583,321.806061 270.540710,323.127106 269.559204,323.896057 
	C263.186554,328.888824 256.750214,333.797791 247.657379,336.963562 
	C247.657379,329.584198 247.657379,323.042023 247.655884,316.000000 
z"/>
<path fill="#000000" opacity="1.000000" stroke="none" 
	d="
M559.921082,346.116028 
	C551.627991,346.051788 551.617554,346.051788 551.613525,338.455597 
	C551.607422,326.964447 551.734924,315.471405 551.550232,303.983276 
	C551.493835,300.473114 552.329590,298.888428 556.160034,298.713501 
	C567.226501,298.208008 567.220215,298.064941 567.203674,309.382935 
	C567.189026,319.375244 567.188354,329.367645 567.153564,339.359863 
	C567.130981,345.858185 567.052673,345.913818 559.921082,346.116028 
z"/>
<path fill="#000000" opacity="1.000000" stroke="none" 
	d="
M245.177094,318.123108 
	C245.196411,323.915009 245.096756,329.225861 245.271927,334.527649 
	C245.381973,337.858246 244.012344,339.629272 240.899811,340.792572 
	C236.691101,342.365570 232.375839,343.476959 228.074814,344.698944 
	C225.259354,345.498871 223.878372,344.617584 223.868179,341.746429 
	C223.835770,332.625641 223.843231,323.504669 223.864563,314.383850 
	C223.870300,311.934662 225.201599,310.783966 227.623047,310.787476 
	C231.105682,310.792542 234.588379,310.754150 238.070999,310.761200 
	C244.971970,310.775146 244.971954,310.782745 245.177094,318.123108 
z"/>
<path fill="#000000" opacity="1.000000" stroke="none" 
	d="
M560.709167,274.561584 
	C567.222046,276.813416 569.767395,281.088623 568.031433,286.279755 
	C566.507629,290.836517 561.016907,293.231476 556.102295,291.418854 
	C551.953552,289.888702 550.185974,286.830505 550.594116,282.467255 
	C551.048096,277.615601 553.930603,275.268768 560.709167,274.561584 
z"/>
<path fill="#000000" opacity="1.000000" stroke="none" 
	d="
M483.806122,277.729492 
	C486.100250,280.296417 485.902161,282.515656 483.416107,284.302948 
	C479.242432,287.303436 474.989899,290.194855 470.752167,293.105377 
	C468.921661,294.362549 467.081085,294.376343 465.284821,293.111206 
	C466.572083,283.077240 474.614380,276.256134 483.806122,277.729492 
z"/>
<path fill="#000000" opacity="1.000000" stroke="none" 
	d="
M362.792725,380.299255 
	C362.776520,378.986786 362.776520,378.029633 362.776520,376.745178 
	C360.556915,378.691559 361.904480,382.952606 358.222229,382.923431 
	C355.473267,382.901703 355.725372,379.819153 354.371948,377.779877 
	C353.567352,379.596405 354.367950,381.955475 352.247040,382.945038 
	C350.119812,382.836273 350.113342,381.253387 350.165405,379.744354 
	C350.268158,376.765717 350.477448,373.790863 350.606628,370.812897 
	C350.667206,369.416656 350.796570,368.125610 352.546326,367.846375 
	C354.285919,367.568787 355.443604,368.310486 356.075165,369.889160 
	C356.800537,371.702271 357.466156,373.539276 358.422455,376.065063 
	C359.526276,373.620453 360.332703,371.845551 361.129486,370.066315 
	C361.804352,368.559296 362.840729,367.624084 364.607849,367.904877 
	C366.257874,368.167023 366.749390,369.469269 366.775787,370.820648 
	C366.840363,374.128204 366.785461,377.441803 366.645813,380.747345 
	C366.604401,381.727966 366.097870,382.738129 364.898560,382.851898 
	C363.350616,382.998779 362.976532,381.892944 362.792725,380.299255 
z"/>
<path fill="#000000" opacity="1.000000" stroke="none" 
	d="
M666.507935,372.068390 
	C667.243469,369.566986 667.973083,367.371277 670.877441,367.909821 
	C673.705566,368.434235 673.009888,370.870972 673.098267,372.750824 
	C673.207642,375.077057 673.211243,377.413177 673.138184,379.741180 
	C673.092529,381.196289 673.217224,383.079071 671.156921,383.182800 
	C669.095764,383.286499 669.049683,381.469421 668.881653,379.974915 
	C668.809021,379.329590 668.790161,378.678192 668.734070,377.837097 
	C666.993652,379.552948 667.399963,383.099274 664.381897,382.965668 
	C661.551392,382.840363 662.267395,379.577942 660.821167,377.662537 
	C659.469727,379.232086 661.181702,382.338165 657.537964,382.962372 
	C656.009460,378.417114 656.663025,373.738495 657.180725,369.113647 
	C657.301331,368.036438 658.546814,367.808777 659.609680,367.840790 
	C660.955811,367.881348 661.736511,368.668243 662.193420,369.836395 
	C662.910400,371.669830 663.595764,373.515594 664.525208,375.963409 
	C665.343506,374.405579 665.869812,373.403809 666.507935,372.068390 
z"/>
<path fill="#000000" opacity="1.000000" stroke="none" 
	d="
M700.887085,372.810730 
	C701.043579,371.367126 701.068542,370.191528 701.353638,369.082825 
	C701.569824,368.242279 702.281921,367.727631 703.248779,367.837189 
	C704.224731,367.947815 704.774109,368.669678 704.835510,369.492004 
	C705.131653,373.457886 705.571228,377.511505 704.576233,381.362610 
	C703.848633,384.178314 701.584106,383.683441 700.016907,381.939697 
	C698.522156,380.276550 697.441711,378.240967 696.090332,376.237335 
	C694.788940,377.785126 695.392639,379.337830 695.169556,380.736267 
	C694.978149,381.936523 694.810974,383.154785 693.262329,383.151947 
	C691.749756,383.149200 691.273499,381.870728 691.254578,380.745331 
	C691.193481,377.113007 691.296387,373.475922 691.422180,369.843658 
	C691.459412,368.768616 692.108765,368.016937 693.264282,367.832214 
	C694.729431,367.598022 695.879639,368.143829 696.726929,369.297211 
	C697.894409,370.886658 699.000916,372.520813 700.153381,374.121582 
	C700.193176,374.176849 700.545532,374.123932 700.581909,374.043945 
	C700.715881,373.749481 700.778137,373.422333 700.887085,372.810730 
z"/>
<path fill="#000000" opacity="1.000000" stroke="none" 
	d="
M401.057617,379.608612 
	C398.097900,378.921082 399.820129,384.759369 396.461823,382.763123 
	C393.732910,381.141052 395.027313,377.887024 394.978271,375.345642 
	C394.836761,368.017242 397.008026,366.135681 403.140991,367.961426 
	C405.507690,368.665985 407.417969,370.496155 406.547394,372.674805 
	C405.125092,376.233887 405.713623,379.311829 407.364532,382.512360 
	C403.800140,384.355988 402.646637,381.850311 401.057617,379.608612 
z"/>
<path fill="#000000" opacity="1.000000" stroke="none" 
	d="
M523.632019,367.486511 
	C529.287292,369.443451 531.234619,373.562256 529.342590,378.820160 
	C527.871948,382.907196 523.471924,384.761993 519.164062,383.110962 
	C515.218201,381.598663 513.263794,376.678375 514.896545,372.230164 
	C516.331848,368.319946 519.475952,367.302917 523.632019,367.486511 
M519.277527,377.024384 
	C519.760376,379.256714 521.170044,380.247986 523.286743,379.418457 
	C525.500732,378.550781 525.947327,376.561218 525.437561,374.418091 
	C525.026733,372.691071 524.081665,371.203033 522.055603,371.380402 
	C518.975464,371.650177 519.198120,374.071686 519.277527,377.024384 
z"/>
<path fill="#000000" opacity="1.000000" stroke="none" 
	d="
M444.807648,370.654968 
	C446.782074,365.179321 450.768677,367.811340 453.660461,368.360138 
	C456.697754,368.936554 457.225281,372.324127 455.700348,374.387512 
	C453.186035,377.789612 457.444031,379.835938 456.710114,382.700439 
	C452.841583,384.831665 452.197662,380.507355 449.934326,379.393677 
	C448.670349,380.638367 449.447174,384.007721 446.460052,383.217468 
	C444.124359,382.599487 444.838043,380.247955 444.767944,378.531647 
	C444.666687,376.052002 444.762878,373.564240 444.807648,370.654968 
z"/>
<path fill="#000000" opacity="1.000000" stroke="none" 
	d="
M475.286255,382.828430 
	C473.998779,378.635956 474.961304,374.661743 474.744171,370.712219 
	C474.649567,368.991272 475.485016,367.788513 477.344086,367.767365 
	C480.939301,367.726471 484.781799,366.940979 487.397797,370.486298 
	C490.832184,375.140686 488.488281,381.890015 482.884277,383.129761 
	C480.507202,383.655609 477.994629,384.312408 475.286255,382.828430 
M482.591522,371.903687 
	C477.394135,370.780273 479.569031,374.837219 479.216888,376.914856 
	C478.990265,378.251984 479.615692,379.858856 481.416748,379.369110 
	C484.074524,378.646454 485.107574,376.710266 484.214233,374.002472 
	C484.014923,373.398438 483.504486,372.897095 482.591522,371.903687 
z"/>
<path fill="#000000" opacity="1.000000" stroke="none" 
	d="
M581.276550,374.174347 
	C582.738037,372.193726 580.372498,367.879242 583.897095,368.135468 
	C587.275391,368.381134 585.046326,372.226562 585.376404,374.447876 
	C585.617554,376.070618 585.444275,377.755280 585.451233,379.412354 
	C585.457397,380.873138 585.845886,382.555206 583.856873,383.088409 
	C582.108582,383.557129 581.069580,382.441010 580.190918,381.154724 
	C579.168457,379.657928 578.165894,378.147614 576.974548,376.375244 
	C575.110474,378.441254 577.603577,382.490845 573.151611,383.393097 
	C570.880737,378.590607 572.720459,373.644012 572.972717,368.954773 
	C573.082336,366.917969 575.957886,367.496399 577.295044,368.999817 
	C578.708862,370.589478 579.797302,372.468567 581.276550,374.174347 
z"/>
<path fill="#000000" opacity="1.000000" stroke="none" 
	d="
M736.079712,380.956055 
	C732.365234,384.290161 728.556641,384.607208 725.036560,381.708374 
	C721.605469,378.882782 721.690063,374.885193 723.416687,371.232086 
	C725.280884,367.287750 729.012817,366.821869 732.826233,367.750580 
	C737.585083,368.909515 738.873474,373.955322 736.079712,380.956055 
M727.446472,373.237427 
	C727.359863,374.227814 727.156372,375.224670 727.211060,376.207214 
	C727.324585,378.246399 728.100891,379.908386 730.513123,379.627136 
	C732.699097,379.372314 733.534058,377.733551 733.599731,375.714294 
	C733.716553,372.118805 731.479187,370.926849 727.446472,373.237427 
z"/>
<path fill="#000000" opacity="1.000000" stroke="none" 
	d="
M417.132080,383.625031 
	C411.533905,382.900421 409.972260,379.308868 410.042542,374.728546 
	C410.100006,370.983246 412.110504,368.518066 415.852051,367.678650 
	C420.279083,366.685455 424.295166,368.953979 425.177734,372.894409 
	C426.508606,378.836426 423.846039,382.573181 417.132080,383.625031 
M420.936493,373.339539 
	C417.758759,370.525635 415.679047,370.669189 414.682251,373.819458 
	C414.099579,375.660828 414.260803,377.436798 415.732178,378.865051 
	C416.646210,379.752258 417.876556,380.039337 418.944153,379.469238 
	C421.107697,378.313934 421.701263,376.342224 420.936493,373.339539 
z"/>
<path fill="#000000" opacity="1.000000" stroke="none" 
	d="
M460.690491,372.307678 
	C460.853516,366.780151 465.585327,365.824402 468.191345,362.715363 
	C468.654968,365.587646 470.097870,367.541443 470.819885,369.447327 
	C469.751984,371.658569 467.568848,370.642303 466.230560,371.747192 
	C466.488373,373.871887 469.945129,372.712555 469.776184,375.237030 
	C469.731812,377.775391 466.734314,376.638885 465.790253,378.349091 
	C466.417358,380.941193 470.165070,378.713470 470.745941,381.858643 
	C468.992645,385.061981 465.910065,383.737701 463.182068,383.378113 
	C460.352905,383.005280 460.754639,380.692535 460.717194,378.736328 
	C460.679077,376.744812 460.694824,374.752228 460.690491,372.307678 
z"/>
<path fill="#000000" opacity="1.000000" stroke="none" 
	d="
M679.671509,367.715027 
	C682.508972,368.077148 685.338989,366.658691 687.353394,369.017517 
	C686.798767,372.021484 683.812500,370.433136 682.361023,372.141907 
	C683.332886,373.747833 686.167297,372.575439 686.711853,375.566681 
	C686.818115,377.972290 683.038818,376.362518 682.119568,378.257172 
	C683.096924,380.964111 687.012207,378.636932 687.596191,382.066193 
	C685.471802,384.663818 682.445679,384.070404 679.672424,383.455536 
	C676.603577,382.775024 676.929138,379.928986 677.162354,377.742706 
	C677.522278,374.369293 675.625305,370.444153 679.671509,367.715027 
z"/>
<path fill="#000000" opacity="1.000000" stroke="none" 
	d="
M620.288330,379.981018 
	C621.999329,379.577637 623.603088,380.212036 625.000061,378.782715 
	C622.893066,376.139526 618.052002,375.585083 619.108887,370.991638 
	C619.667297,368.564575 621.632263,367.568878 623.946777,367.389160 
	C626.042419,367.226410 628.281921,367.023895 628.997742,369.526917 
	C628.308472,371.817169 626.227966,370.817535 625.077271,371.824768 
	C625.278687,373.881622 627.514893,373.829041 628.439209,375.114655 
	C630.215088,377.584778 630.740173,380.156708 628.201355,382.187286 
	C625.556519,384.302612 622.469727,384.852905 619.636353,382.272278 
	C618.932922,381.631561 619.236145,380.749939 620.288330,379.981018 
z"/>
<path fill="#000000" opacity="1.000000" stroke="none" 
	d="
M614.488525,380.221069 
	C616.046143,381.334930 616.104797,382.400177 614.701721,383.090210 
	C612.319824,384.261597 609.762695,383.958862 607.391968,383.123962 
	C605.135193,382.329224 605.788879,380.110687 605.680542,378.360809 
	C605.598328,377.033020 605.667480,375.696350 605.652344,374.363831 
	C605.571716,367.251282 608.719482,365.535706 615.458557,369.051910 
	C615.113098,372.187225 611.606628,370.166077 610.448364,372.093323 
	C611.356873,373.896179 614.196167,372.578583 614.810242,374.957306 
	C614.770874,377.989136 611.010803,376.242371 610.060486,378.403198 
	C610.683044,380.696228 612.871826,379.351715 614.488525,380.221069 
z"/>
<path fill="#000000" opacity="1.000000" stroke="none" 
	d="
M746.031616,378.925049 
	C745.909424,377.480438 744.849976,377.200195 744.045532,376.657288 
	C741.184387,374.726379 739.689453,372.343719 742.128784,369.175812 
	C744.174133,366.519684 748.230408,366.802612 750.961060,369.585510 
	C750.309326,372.140839 747.714844,370.584564 746.060364,372.020630 
	C748.656311,374.915314 755.780884,376.556152 750.044861,382.292786 
	C747.548828,384.789062 743.495483,383.834198 741.461609,380.766418 
	C742.489014,378.932495 744.656616,380.352875 746.031616,378.925049 
z"/>
<path fill="#000000" opacity="1.000000" stroke="none" 
	d="
M551.312622,369.535950 
	C550.153442,371.691986 547.798645,370.658813 546.362793,371.889465 
	C547.329102,373.934540 550.837097,372.464966 550.784912,375.197357 
	C550.728027,378.179657 546.719116,376.138641 546.000427,378.649323 
	C547.170166,381.031219 550.786194,378.668182 551.901306,382.135284 
	C549.038269,384.648712 545.742554,383.622345 542.633362,382.603455 
	C541.473938,382.223511 540.897156,370.037659 542.169922,369.120056 
	C545.100342,367.007477 548.336914,366.679169 551.312622,369.535950 
z"/>
<path fill="#000000" opacity="1.000000" stroke="none" 
	d="
M588.975647,369.900360 
	C590.494690,366.534851 591.900085,367.505676 593.151733,369.701294 
	C593.641418,370.560364 593.863953,371.567352 594.284729,372.471344 
	C594.686340,373.334106 594.830078,374.408905 595.925842,374.792664 
	C598.659790,370.423859 600.320129,368.546509 602.479797,368.020538 
	C601.661011,373.384216 599.923584,378.195251 597.308716,382.465973 
	C595.906006,384.756866 593.720032,383.364197 592.852478,381.117188 
	C591.474915,377.549103 590.276672,373.911835 588.975647,369.900360 
z"/>
<path fill="#000000" opacity="1.000000" stroke="none" 
	d="
M434.460144,378.598541 
	C436.395172,380.458099 439.036255,379.108398 440.915680,380.870239 
	C440.369141,383.844971 438.009583,383.789062 436.002594,383.707275 
	C430.944489,383.501221 427.983032,379.316315 428.778687,373.808624 
	C429.452759,369.142395 433.364990,366.691040 438.453217,367.719513 
	C439.622437,367.955841 440.927673,368.104553 440.884888,369.656403 
	C440.840179,371.279480 439.528137,371.149017 438.334045,371.284546 
	C432.896210,371.901672 432.405212,372.776337 434.460144,378.598541 
z"/>
<path fill="#000000" opacity="1.000000" stroke="none" 
	d="
M384.467407,367.866486 
	C387.111206,367.959961 389.841949,366.560059 391.467865,369.860535 
	C388.869690,372.144440 382.875610,370.044525 383.517487,376.011780 
	C384.023254,380.713623 388.373718,379.492126 391.477936,380.468781 
	C390.319458,384.304565 387.609039,383.793701 385.356171,383.476959 
	C381.834930,382.981903 379.698181,380.601074 379.134338,377.190063 
	C378.440186,372.990997 379.805725,369.634094 384.467407,367.866486 
z"/>
<path fill="#000000" opacity="1.000000" stroke="none" 
	d="
M642.294250,367.708313 
	C644.039978,368.067169 645.173218,369.397614 643.984924,370.063416 
	C639.987732,372.303070 641.220642,375.938446 640.838257,379.217438 
	C640.643127,380.891144 640.916016,383.370422 638.238098,383.139008 
	C635.879028,382.935150 636.451599,380.771027 636.532349,379.192352 
	C636.734375,375.242767 637.511719,371.083282 631.273926,369.949219 
	C635.114502,366.533447 638.697449,368.182953 642.294250,367.708313 
z"/>
<path fill="#000000" opacity="1.000000" stroke="none" 
	d="
M506.005432,382.997925 
	C503.798737,382.298004 503.791656,380.716339 503.850250,379.237885 
	C504.002563,375.395844 504.159698,371.599792 498.672638,369.075470 
	C503.979675,366.956573 507.969910,367.646362 512.072632,368.057953 
	C512.413574,371.800323 507.498383,371.573456 508.081268,375.294434 
	C508.462921,377.730682 509.546844,381.009369 506.005432,382.997925 
z"/>
<path fill="#000000" opacity="1.000000" stroke="none" 
	d="
M711.716064,374.584045 
	C712.016174,371.433899 708.418945,371.543610 707.990173,368.572906 
	C712.132080,366.988220 716.126953,367.543976 720.433105,368.919495 
	C716.304810,371.456787 715.981506,375.021637 716.157471,378.921539 
	C716.233826,380.615173 716.433411,383.089355 713.748901,382.927643 
	C711.503784,382.792389 711.906189,380.565613 711.801208,378.980286 
	C711.713684,377.659729 711.756226,376.330566 711.716064,374.584045 
z"/>
<path fill="#000000" opacity="1.000000" stroke="none" 
	d="
M568.059570,371.387512 
	C568.047729,374.794373 568.084290,377.752258 567.935730,380.700806 
	C567.876099,381.883392 567.270142,382.969818 565.821960,382.974396 
	C564.328064,382.979126 563.878540,381.873627 563.843689,380.663055 
	C563.753845,377.544891 563.737610,374.423462 563.758179,371.303772 
	C563.766724,369.996399 563.761047,368.421509 565.419006,368.143372 
	C567.424438,367.806854 567.797668,369.398590 568.059570,371.387512 
z"/>
<path fill="#000000" opacity="1.000000" stroke="none" 
	d="
M492.771820,380.606567 
	C492.715668,377.033936 492.659973,373.912659 492.719543,370.793579 
	C492.745087,369.455811 492.994141,368.046326 494.805298,368.063873 
	C496.248108,368.077820 496.841095,369.210846 496.869354,370.383820 
	C496.952332,373.824585 497.277710,377.340881 496.707977,380.691559 
	C496.207672,383.634247 494.436768,384.187988 492.771820,380.606567 
z"/>
<path fill="#000000" opacity="1.000000" stroke="none" 
	d="
M648.520630,382.206604 
	C647.434753,378.259705 647.950623,374.619080 647.871155,371.003357 
	C647.841614,369.660156 648.116821,368.167572 649.820679,368.060699 
	C651.879456,367.931610 652.148804,369.575623 652.176147,371.110596 
	C652.229065,374.079437 652.254395,377.054230 652.121948,380.018982 
	C652.031860,382.035553 651.455688,383.776520 648.520630,382.206604 
z"/>
<path fill="#000000" opacity="1.000000" stroke="none" 
	d="
M370.944153,375.030243 
	C371.346893,372.312286 369.723114,368.378357 372.943878,368.313965 
	C376.983734,368.233215 374.767731,372.377625 375.238892,374.667419 
	C375.501923,375.945557 375.374481,377.331696 375.254730,378.653931 
	C375.102570,380.334137 375.832947,382.930328 373.106567,382.831055 
	C370.611176,382.740204 371.101135,380.231995 370.953125,378.490967 
	C370.868713,377.498657 370.940491,376.493073 370.944153,375.030243 
z"/>
</svg>