<?xml version="1.0" encoding="utf-8"?>
<!-- Generator: Adobe Illustrator 25.0.0, SVG Export Plug-In . SVG Version: 6.00 Build 0)  -->
<svg version="1.1" id="Layer_1" xmlns="http://www.w3.org/2000/svg" xmlns:xlink="http://www.w3.org/1999/xlink" x="0px" y="0px"
	 viewBox="0 0 1024 1024" style="enable-background:new 0 0 1024 1024;" xml:space="preserve">
<style type="text/css">
	.st0{fill:#272660;}
	.st1{fill:#FFFFFF;}
	.st2{fill:#010101;}
	.st3{fill:#282560;}
</style>
<path class="st0" d="M512,1024L512,1024C229.23,1024,0,794.77,0,512v0C0,229.23,229.23,0,512,0h0c282.77,0,512,229.23,512,512v0
	C1024,794.77,794.77,1024,512,1024z"/>
<path class="st1" d="M512,946.18L512,946.18C272.21,946.18,77.82,751.79,77.82,512v0C77.82,272.21,272.21,77.82,512,77.82h0
	c239.79,0,434.18,194.39,434.18,434.18v0C946.18,751.79,751.79,946.18,512,946.18z"/>
<g>
	<path class="st2" d="M262.71,713.85H248.9c-0.43,0-0.78-0.35-0.78-0.78V588.52c0-0.43,0.35-0.78,0.78-0.78h13.82
		c0.43,0,0.78,0.35,0.78,0.78v124.54C263.5,713.5,263.15,713.85,262.71,713.85z"/>
	<g>
		<path class="st3" d="M299.57,313.58h-86.23c-2.7,0-4.88,2.19-4.88,4.88v355.98c0,2.7,2.19,4.88,4.88,4.88h86.23
			c2.7,0,4.88-2.19,4.88-4.88V318.46C304.46,315.76,302.27,313.58,299.57,313.58z"/>
		<g>
			<path class="st3" d="M443.37,600.14c-26.28-0.07-52.55-10.12-72.6-30.18l0,0c-40.24-40.24-40.24-105.49,0-145.74l0,0
				c20.05-20.05,46.32-30.11,72.6-30.18v-83.14h7.52c-16.8-2.81-34.65,2.21-47.61,15.17l-132.2,132.2c-21.3,21.3-21.3,55.82,0,77.12
				l132.2,132.2c12.39,12.39,29.26,17.52,45.39,15.49h-5.3V600.14z"/>
			<path class="st3" d="M516.5,569.97L516.5,569.97c40.24-40.24,40.24-105.49,0-145.74l0,0c-20.19-20.19-46.67-30.24-73.13-30.18
				v206.09C469.83,600.21,496.31,590.16,516.5,569.97z"/>
			<path class="st3" d="M704.81,310.91H450.88c10.8,1.81,21.17,6.83,29.51,15.17l132.2,132.2c21.3,21.3,21.3,55.82,0,77.12
				l-132.2,132.2c-8.9,8.9-20.13,14.03-31.73,15.49h256.15c61.15,0,110.73-49.58,110.73-110.73V421.64
				C815.54,360.49,765.97,310.91,704.81,310.91z"/>
		</g>
	</g>
</g>
</svg>
