<?xml version="1.0" encoding="utf-8"?>
<!-- Generator: Adobe Illustrator 25.0.0, SVG Export Plug-In . SVG Version: 6.00 Build 0)  -->
<svg version="1.1" id="Layer_1" xmlns="http://www.w3.org/2000/svg" xmlns:xlink="http://www.w3.org/1999/xlink" x="0px" y="0px"
	 viewBox="0 0 1024 1024" style="enable-background:new 0 0 1024 1024;" xml:space="preserve">
<style type="text/css">
	.st0{fill:#282560;}
	.st1{fill:#010101;}
</style>
<g>
	<g>
		<g>
			<path class="st0" d="M292.35,425.71h4.25v28.66c4.41-4.25,20.16-19.05,30-28.66h5.67l-24.72,23.46l26.14,31.65h-5.28l-23.94-28.9
				l-7.87,6.93v21.97h-4.25V425.71z"/>
			<path class="st0" d="M339.43,451.38c0-3.46,0-6.77-0.08-9.92h3.86c0.16,1.26,0.24,6.38,0.16,7.48c1.73-4.02,4.96-8.42,13.07-8.42
				c7.01,0,13.23,3.94,13.23,14.8v25.51h-3.94v-24.88c0-7.01-2.91-11.57-9.76-11.57c-9.37,0-12.6,7.79-12.6,16.38v20.08h-3.94
				V451.38z"/>
			<path class="st0" d="M414.46,461.06c0,10.94-6.06,20.71-17.79,20.71c-10.63,0-17.24-8.74-17.24-20.63
				c0-11.26,6.22-20.63,17.64-20.63C407.53,440.51,414.46,448.7,414.46,461.06z M383.6,461.14c0,9.37,5.04,16.93,13.38,16.93
				c8.5,0,13.31-7.01,13.31-16.93c0-9.29-4.72-16.93-13.46-16.93C387.85,444.21,383.6,451.69,383.6,461.14z"/>
			<path class="st0" d="M424.3,441.46c5.83,20.31,9.21,31.97,9.84,35.43h0.08c0.63-3.15,4.57-15.51,10.71-35.43h4.25
				c7.32,24.33,9.53,31.34,10.24,34.41h0.08c1.1-4.33,2.91-10.24,10.16-34.41h4.17l-12.44,39.37h-4.33
				c-4.25-13.94-9.37-31.02-10.16-34.64h-0.08c-0.79,3.86-5.27,17.95-10.39,34.64h-4.72l-11.57-39.37H424.3z"/>
			<path class="st0" d="M482.64,480.82V422.8h3.94v58.03H482.64z"/>
			<path class="st0" d="M500.35,461.61c0.08,10.16,5.2,16.46,12.76,16.46c7.4,0,9.92-4.17,11.34-7.4h4.02
				c-1.65,5.2-5.83,11.1-15.51,11.1c-11.97,0-16.61-10.31-16.61-20.31c0-11.26,5.59-20.94,17.09-20.94
				c12.12,0,15.98,10.47,15.98,17.87c0,1.1,0,2.2-0.08,3.23H500.35z M525.31,458.15c-0.08-7.79-4.33-13.94-12.05-13.94
				c-8.11,0-11.81,5.67-12.68,13.94H525.31z"/>
			<path class="st0" d="M569.4,422.8v46.69c0,3.78,0,7.4,0.08,11.34h-3.78c-0.16-0.94-0.24-4.65-0.24-6.61
				c-1.97,4.8-6.38,7.56-13.23,7.56c-10.24,0-16.38-8.35-16.38-20.16c0-12.12,6.69-21.1,17.4-21.1c7.87,0,11.02,3.39,12.2,5.91
				V422.8H569.4z M540.03,461.45c0,10.79,5.59,16.61,12.36,16.61c10.39,0,13.23-7.16,13.23-17.87c0-10.16-2.44-15.98-12.52-15.98
				C545.3,444.21,540.03,450.43,540.03,461.45z"/>
			<path class="st0" d="M612.38,478.15c0,12.6-5.59,19.21-17.01,19.21c-10.24,0-14.49-5.75-15.43-11.73h4.02
				c1.42,5.43,5.9,8.03,11.57,8.03c10.24,0,13.07-6.61,13.07-16.61v-4.09c-2.13,5.12-5.98,7.87-13.15,7.87
				c-9.21,0-16.3-7.48-16.3-19.68c0-13.23,7.56-20.63,16.85-20.63c8.03,0,11.5,3.78,12.6,6.93c0.08-2.28,0.16-5.04,0.24-5.98h3.7
				c0,1.42-0.16,7.64-0.16,11.42V478.15z M583.33,460.98c0,9.37,4.96,16.14,12.52,16.14c9.84,0,12.83-6.54,12.83-16.77
				c0-10.39-3.15-16.14-12.6-16.14C587.03,444.21,583.33,452.01,583.33,460.98z"/>
			<path class="st0" d="M626.16,461.61c0.08,10.16,5.2,16.46,12.75,16.46c7.4,0,9.92-4.17,11.34-7.4h4.02
				c-1.65,5.2-5.83,11.1-15.51,11.1c-11.97,0-16.61-10.31-16.61-20.31c0-11.26,5.59-20.94,17.08-20.94
				c12.13,0,15.98,10.47,15.98,17.87c0,1.1,0,2.2-0.08,3.23H626.16z M651.12,458.15c-0.08-7.79-4.33-13.94-12.05-13.94
				c-8.11,0-11.81,5.67-12.68,13.94H651.12z"/>
			<path class="st0" d="M728.12,466.1c-2.6,8.74-9.05,15.35-20.71,15.35c-15.83,0-24.17-12.6-24.17-28.11
				c0-14.88,8.19-28.42,24.25-28.42c11.89,0,18.9,6.61,20.71,15.83h-4.25c-2.52-7.17-7.17-11.89-16.69-11.89
				c-13.7,0-19.45,12.52-19.45,24.41c0,11.81,5.67,24.25,19.76,24.25c8.98,0,13.54-4.65,16.3-11.42H728.12z"/>
			<path class="st0" d="M738.82,461.61c0.08,10.16,5.2,16.46,12.75,16.46c7.4,0,9.92-4.17,11.34-7.4h4.02
				c-1.65,5.2-5.83,11.1-15.51,11.1c-11.97,0-16.61-10.31-16.61-20.31c0-11.26,5.59-20.94,17.09-20.94
				c12.12,0,15.98,10.47,15.98,17.87c0,1.1,0,2.2-0.08,3.23H738.82z M763.78,458.15c-0.08-7.79-4.33-13.94-12.05-13.94
				c-8.11,0-11.81,5.67-12.68,13.94H763.78z"/>
			<path class="st0" d="M777.48,451.38c0-3.46,0-6.77-0.08-9.92h3.86c0.16,1.26,0.24,6.38,0.16,7.48c1.73-4.02,4.96-8.42,13.07-8.42
				c7.01,0,13.23,3.94,13.23,14.8v25.51h-3.94v-24.88c0-7.01-2.91-11.57-9.76-11.57c-9.37,0-12.6,7.79-12.6,16.38v20.08h-3.94
				V451.38z"/>
			<path class="st0" d="M814.71,441.46h7.32v-12.28h3.94v12.28h9.37v3.7h-9.37v25.59c0,4.41,0.94,6.93,4.72,6.93
				c1.18,0,2.83-0.08,4.09-0.47v3.46c-1.34,0.55-3.23,0.71-4.88,0.71c-5.04,0-7.87-2.52-7.87-8.82v-27.4h-7.32V441.46z"/>
			<path class="st0" d="M844.24,461.61c0.08,10.16,5.2,16.46,12.75,16.46c7.4,0,9.92-4.17,11.34-7.4h4.02
				c-1.65,5.2-5.83,11.1-15.51,11.1c-11.97,0-16.61-10.31-16.61-20.31c0-11.26,5.59-20.94,17.09-20.94
				c12.12,0,15.98,10.47,15.98,17.87c0,1.1,0,2.2-0.08,3.23H844.24z M869.2,458.15c-0.08-7.79-4.33-13.94-12.05-13.94
				c-8.11,0-11.81,5.67-12.68,13.94H869.2z"/>
			<path class="st0" d="M882.89,452.16c0-6.61-0.08-9.45-0.08-10.71h3.86c0.08,1.26,0.16,3.78,0.16,8.82
				c2.28-5.91,7.32-9.45,13.7-9.76v4.25c-8.19,0.55-13.7,6.22-13.7,15.59v20.47h-3.94V452.16z"/>
		</g>
	</g>
	<g>
		<path class="st1" d="M160.58,494.67h-1.17c-0.43,0-0.78-0.35-0.78-0.78v-20.85c0-0.43,0.35-0.78,0.78-0.78h1.17
			c0.43,0,0.78,0.35,0.78,0.78v20.85C161.36,494.32,161.01,494.67,160.58,494.67z"/>
		<g>
			<path class="st0" d="M163.76,423.52h-7.3c-2.7,0-4.88,2.19-4.88,4.88v55.25c0,2.7,2.19,4.88,4.88,4.88h7.3
				c2.7,0,4.88-2.19,4.88-4.88V428.4C168.64,425.71,166.45,423.52,163.76,423.52z"/>
			<g>
				<path class="st0" d="M193.33,474.46c-4.67-0.01-9.34-1.8-12.91-5.36l0,0c-7.15-7.15-7.15-18.75,0-25.91l0,0
					c3.56-3.56,8.23-5.35,12.91-5.36v-14.78h1.34c-2.99-0.5-6.16,0.39-8.46,2.7l-23.5,23.5c-3.79,3.79-3.79,9.92,0,13.71l23.5,23.5
					c2.2,2.2,5.2,3.11,8.07,2.75h-0.94V474.46z"/>
				<path class="st0" d="M206.33,469.09L206.33,469.09c7.15-7.15,7.15-18.75,0-25.91l0,0c-3.59-3.59-8.3-5.38-13-5.36v36.63
					C198.03,474.47,202.74,472.68,206.33,469.09z"/>
				<path class="st0" d="M239.8,423.05h-45.14c1.92,0.32,3.76,1.21,5.24,2.7l23.5,23.5c3.79,3.79,3.79,9.92,0,13.71l-23.5,23.5
					c-1.58,1.58-3.58,2.49-5.64,2.75h45.53c10.87,0,19.68-8.81,19.68-19.68v-26.79C259.49,431.86,250.67,423.05,239.8,423.05z"/>
			</g>
		</g>
	</g>
</g>
</svg>
